<svg xmlns="http://www.w3.org/2000/svg" width="188" height="106" fill="none"><g fill="#C4C4C4" clip-path="url(#a)"><path d="M7.22 82.77h171.42v.8H7.22v-.8zm0-44.05h171.42v.8H7.22v-.8zM106.97 90.78H78.62v.8h28.35v-.8z"/><path fill-rule="evenodd" d="M131.04 32.3c1.34.54 2.4.54 3.47.27 1.1-.26 2.15-.53 2.7-1.06.8-.53 1.06-1.06 1.33-1.33.26-.53.26-.53.26-.8-.27 0-.54.8-1.88 1.6-.53.27-1.6.54-2.4.8-1.08 0-2.14 0-2.95-.26-.53-.26-.8-.53-1.33-.8.53-.53.8-1.06 1.07-1.6 0-.26.27-.53.27-.8s0-.53 0-.8-.26-.53-.53-.8-1.07-.53-1.6-.27c-.27 0-.54.27-.8.54-.28.53-.28 1.06-.28 1.87 0 .53.27 1.33.8 1.86-.26 0-.26.27-.53.27s-.53.27-.8.27-.54 0-.8 0c-.54 0-1.07 0-1.88 0-4-.8-6.4-5.88-4.27-9.35.8-1.34 1.87-2.14 3.2-2.94 1.34-.27 2.95-.54 4.55-.27 1.34.26 2.4.52 3.75 1.06 1.06.53 2.13 1.33 3.2 2.13 1.88 1.6 3.48 3.2 5.35 4.8.8.8 1.88 1.6 2.68 2.14.8.53 1.88 1.06 2.95 1.6 1.87.8 3.74 1.33 5.6 1.6 1.9 0 3.5 0 4.83-.53 1.34-.53 2.4-1.06 3.2-1.6 1.6-1.06 2.15-2.13 2.15-2.13s-.8.8-2.4 1.87c-.8.53-1.88 1.06-3.22 1.33-1.33.27-2.93.54-4.53.27s-3.48-.8-5.35-1.6c-.8-.54-1.88-1.07-2.68-1.6-.8-.54-1.6-1.34-2.67-2.14-1.6-1.6-3.48-3.2-5.35-5.07-1.07-.8-2.14-1.6-3.2-2.14-1.35-.54-2.68-1.08-4.02-1.08-1.87-.27-3.48 0-5.08.54-1.6.8-2.94 1.86-3.75 3.2-2.4 4 .27 9.88 5.1 10.68.8 0 1.32 0 1.86 0 .26 0 .53 0 1.07-.27.26 0 .53-.26.8-.26s.27-.26.53-.26c.27.53 1.07.8 1.6 1.07zm-76.22 0c-1.33.54-2.4.54-3.47.27-1.07-.26-2.14-.53-2.68-1.06-.8-.53-1.07-1.06-1.34-1.33-.26-.53-.26-.53-.26-.8.26 0 .53.8 1.87 1.6.53.27 1.34.54 2.4.8 1.08 0 2.14 0 2.95-.26.52-.26.8-.53 1.32-.8-.53-.53-.8-1.06-1.07-1.6 0-.26-.26-.53-.26-.8s0-.53 0-.8.25-.53.52-.8 1.07-.53 1.6-.27c.27 0 .54.27.8.54.28.53.28 1.06.28 1.87 0 .53-.27 1.33-.8 1.86 0 0 .26.27.53.27s.53.27.8.27.54 0 .8 0c.54 0 1.07 0 1.88 0 4.02-.8 6.42-5.88 4.28-9.35-.8-1.07-1.87-2.14-3.47-2.68-1.33-.53-2.93-.8-4.54-.53-1.34.26-2.4.52-3.74 1.06-1.07.53-2.14 1.33-3.2 2.13-1.88 1.6-3.5 3.2-5.36 4.8-.8.8-1.87 1.6-2.67 2.14-.82.53-1.9 1.06-2.96 1.6-1.87.8-3.74 1.33-5.6 1.6-1.88 0-3.5 0-4.83-.53-1.32-.53-2.4-1.06-3.2-1.6-1.6-1.06-2.13-2.13-2.13-2.13s.8.8 2.4 1.87c.8.53 1.87 1.06 3.2 1.33 1.35.27 2.95.54 4.56.27 1.6-.27 3.47-.8 5.35-1.6.8-.54 1.87-1.07 2.67-1.6.8-.54 1.6-1.34 2.68-2.14 1.6-1.6 3.47-3.47 5.34-5.07 1.07-.8 2.14-1.6 3.2-2.14 1.35-.54 2.7-1.08 4.02-1.08 1.87-.27 3.47 0 5.08.54 1.6.8 2.94 1.86 3.74 3.2 2.4 4-.27 9.88-5.08 10.68-.8 0-1.34 0-1.87 0-.27 0-.54 0-1.07-.27-.27 0-.54-.26-.8-.26-.27 0-.27-.26-.54-.26-.27.53-.8.8-1.34 1.07zm-20.32-4c-1.07.27-2.4.27-3.2 0-1.08-.27-1.62-1.07-2.15-1.87-.27-.8-.27-1.87.27-2.67.26-.8 1.07-1.07 1.87-1.07s1.33.26 1.6.8c.26.53.26 1.06.26 1.33s-.27.53-.53.8c-.27.27-.27.27-.27.27h.27c.26 0 .53-.27.8-.8 0-.27.27-.54.27-.8 0-.27 0-.8-.27-1.07-.54-.54-1.34-1.07-2.14-1.07-.55 0-1.08 0-1.35.27-.53.26-.8.53-1.07 1.07-.27.53-.53 1.06-.53 1.6 0 .53 0 1.07.26 1.87.55 1.06 1.35 2.13 2.7 2.67 1.33.53 2.66.53 3.73.26 1.34-.26 2.4-.8 3.48-1.33 1.08-.54 1.88-1.34 2.68-1.87 1.6-1.34 2.95-2.67 4.28-4 1.07-1.07 2.14-1.87 2.94-2.4.27-1.34.8-1.6.8-1.6s-.53 0-1.33.52c-.8.54-1.87 1.34-3.2 2.4-1.35 1.07-2.68 2.4-4.3 3.74-.8.54-1.86 1.34-2.66 1.87-1.06.27-2.13.8-3.2 1.07zm21.66 1.87c.27-.27.53-.8.53-1.33 0-.54 0-1.07 0-1.34-.54-1.33-1.88 0-1.34 1.34 0 .53.26 1.06.8 1.33zm95.2-1.87c1.07.27 2.4.27 3.2 0 1.08-.27 1.62-1.07 2.15-1.87.28-.8.28-1.87-.26-2.67-.26-.8-1.07-1.07-1.87-1.07s-1.33.26-1.6.8c-.27.53-.27 1.06-.27 1.33s.27.53.54.8c.26.27.26.27.26.27h-.26c-.27 0-.54-.27-.8-.8 0-.27-.28-.54-.28-.8 0-.27 0-.8.27-1.07.54-.54 1.34-1.07 2.14-1.07.54 0 1.07 0 1.34.27.54.26.8.53 1.08 1.07.53.26.8.8.8 1.33s0 1.07-.27 1.87c-.52 1.07-1.32 2.14-2.66 2.67-1.34.53-2.68.53-3.75.27-1.34-.27-2.4-.8-3.48-1.34-1.07-.53-1.87-1.33-2.68-1.87-1.6-1.33-2.94-2.67-4.27-4-1.07-1.07-2.14-1.87-2.95-2.4-.8-1.07-1.07-1.34-1.07-1.34s.54 0 1.34.52c.8.54 1.86 1.34 3.2 2.4 1.34 1.07 2.68 2.4 4.28 3.74.8.54 1.87 1.34 2.67 1.87.8.27 1.88.8 3.2 1.07zm-21.66 1.87c-.27-.27-.53-.8-.53-1.33 0-.54 0-1.07 0-1.34.53-1.33 1.87 0 1.33 1.34-.26.53-.53 1.06-.8 1.33z" clip-rule="evenodd"/><path d="M47.07 93.45l-.27.8-2.14-.8-.27.8 1.86.8-.26 1.07-1.87-.8-.54.8 2.13.8-.27.8-3.2-1.07 1.6-4.27 3.2 1.07zM51.35 95.85c-.27 0-.27.27 0 0-.27.27-.27.54-.27.54s.27.25.8.52c.27.27.8.54.8.8.27.27.27.54 0 1.07 0 .26-.26.8-.8.8-.27.26-.8.26-1.34 0-.8-.28-1.33-.8-1.6-1.34l.8-.54c.27.54.8.8 1.07 1.07.28 0 .28 0 .55 0l.26-.28v-.26s-.25-.27-.52-.54c-.54-.26-.8-.53-1.07-.8-.26-.27-.26-.53 0-1.07 0-.53.28-.8.8-.8.28-.26.8 0 1.35 0 .27 0 .53.27.8.54.27.25.54.52.54.8l-.82.52c-.26-.53-.53-.8-1.07-.8 0-.27-.25-.27-.25-.27zM58.83 98l-1.07 3.73-1.07-.27 1.06-3.74-1.33-.26.26-.8 3.47.8-.27.8-1.07-.27zM65.52 103.33l-.27-1.07-1.87-.27-.54.8-1.33-.27 2.95-4.27 1.07.26 1.07 5.08-1.08-.27zm-.8-3.47l-.8 1.33 1.06.26-.26-1.6zM71.94 104.4l-2.14-.27.8-4.54 1.87.26c.27 0 .54 0 .8.27.27 0 .27.26.54.26.28.26.28.53.28.8 0 .26-.27.53-.54.8h-.27s0 0-.26 0c.27 0 .54.26.54.53.27.27.27.53.27.8s-.26.53-.53.8c-.26.27-.8.54-1.33.27zm-1.07-.8h.8c.27 0 .53 0 .8 0s.27-.27.27-.27c0-.27 0-.27-.27-.53-.27 0-.27-.27-.8-.27h-.53l-.27 1.07zm.53-2.14h.54c.26 0 .53 0 .53 0 .27 0 .27-.27.27-.27 0-.27 0-.27 0-.54 0 0-.27-.27-.54-.27h-.53l-.27 1.06zM77.3 105.2l.52-4.54h1.07l-.28 3.74 1.88.27v.8l-3.2-.27zM83.97 101.2h1.07l-.27 4.53H83.7l.27-4.54zM89.85 102.26l-.26.27c0 .27 0 .27.25.27 0 0 .54.26.8.26.54 0 .8.27 1.08.54.26.26.26.53.26 1.07 0 .53-.27.8-.54 1.06-.27.27-.8.27-1.34.27-.8 0-1.33-.27-1.87-.8l.54-.8c.52.53 1.05.8 1.32.8s.27 0 .54 0l.26-.27c0-.27 0-.27-.26-.27 0 0-.27-.26-.8-.26-.54-.27-.8-.27-1.07-.54-.28-.26-.28-.53-.28-1.06 0-.54.27-.8.53-1.07.27-.27.8-.27 1.07-.27s.54 0 .8.27c.27 0 .54.27.8.53l-.53.8c-.28-.26-.8-.53-1.35-.53.27-.27 0-.27 0-.27zM98.4 101.2h1.08l.27 4.53h-1.07v-1.87H96.8v1.87h-1.06l-.27-4.27h1.07v1.87h1.87v-2.14zM106.44 100.66v.8l-2.14.27v1.07l2.14-.27v.8l-2.14.27v1.07l2.4-.27v.8l-3.47.27-.54-4.54 3.73-.27zM113.66 100.4c.53.26.8.8.8 1.6s0 1.33-.27 1.86c-.28.54-1.08.8-1.88.8l-1.6.27-.54-4.54 1.6-.27c.8-.27 1.34 0 1.88.26zm-.27 2.93c.26-.27.26-.53.26-1.07 0-.53-.27-.8-.54-1.07s-.8-.27-1.34-.27h-.53l.53 2.93h.54c.53-.26.8-.26 1.07-.53zM121.68 98.26l1.87-.54 1.07 4.54-1.07.27-.8-3.74-.8.26-.27-.8zM129.43 100.4c.27 0 .54-.27.54-.54s0-.54 0-.8c-.27.26-.54.53-.8.53-.54 0-.8 0-1.07 0-.27-.28-.54-.54-.8-1.08 0-.53 0-.8.26-1.33.27-.28.54-.55 1.07-.8.27 0 .54 0 .8 0 .27 0 .54.25.8.25.27.27.54.8.8 1.6 0 .54.28.8.28 1.07s0 .54-.26.8c-.27.54-.54.8-1.07.8-.27 0-.54 0-.54 0-.26 0-.26 0-.53 0 0 0-.27 0-.54-.26l.27-.8s0 0 .27 0h.27c0 .53 0 .53.26.53zm-.53-1.6c.27 0 .27-.28.53-.28 0-.26 0-.26 0-.53 0-.28-.26-.28-.26-.54-.27 0-.27 0-.54 0s-.27.26-.53.26c0 .27 0 .27 0 .54 0 .26.26.26.26.53.27 0 .54 0 .54 0zM135.85 98.26c.27 0 .54-.27.54-.54 0-.26 0-.53 0-.8-.28.27-.55.54-.8.54-.55.26-.82 0-1.1 0-.25-.27-.52-.54-.8-1.07-.25-.55 0-.8 0-1.35.28-.26.55-.53 1.08-.8.27 0 .54 0 .8 0 .27 0 .54.27.8.27.27.27.8.8.8 1.33 0 .54.28.8.28 1.07s0 .54-.27.8c-.28.54-.55.8-1.08 1.07-.27 0-.53 0-.53 0-.28 0-.28 0-.55 0 0 0-.27 0-.54 0l.28-.8s0 0 .27 0h.27c.27.52.53.52.53.26zm-.26-1.6c.25 0 .25-.27.52-.27 0-.28 0-.28 0-.55 0-.26-.27-.26-.27-.53-.26 0-.26 0-.53 0s-.27.27-.54.27c0 .25 0 .25 0 .52s.27.27.27.53c.27 0 .27 0 .53 0zM139.6 93.18l1.87-.8 1.6 4.27-1.07.27-1.33-3.47-.8.27-.27-.54z"/><path fill-rule="evenodd" d="M71.4 32.84h43.06c.8 0 1.34-.53 1.34-1.33s-.54-1.33-1.34-1.33H71.4c-.8 0-1.33.54-1.33 1.34s.53 1.34 1.33 1.34zM97.08 7.2v.54c9.9 1.87 17.1 10.68 17.1 21.1H71.4c0-10.42 7.5-18.96 17.12-21.1V7.2c0-.8.53-1.33 1.33-1.33h1.34v-.8c0-.53-.28-1.06-.8-1.33-.8-.27-1.35-1.07-1.35-1.6C89.32 1.07 90.92 0 92.8 0c1.87 0 3.47 1.07 3.47 2.14 0 .8-.53 1.33-1.33 1.6-.54.27-.8.8-.8 1.33v.54h1.33c1.07 0 1.6.8 1.6 1.6z" clip-rule="evenodd"/><path d="M8.56 66.22c-.8-1.87-1.34-2.4-3.48-2.4 0 2.13 0 5.87 0 8.27l1.6 1.06v1.07c-2.13 0-4.8 0-6.68 0v-1.07l1.6-1.07c0-6.95 0-13.9 0-20.84l-1.33-.8V49.4H7.5c3.73 0 6.94 1.33 6.94 5.87v3.2c0 2.94-1.6 4.8-4 5.34 1.06.55 1.6 1.35 1.86 2.42l1.6 4.54c.27 1.06 1.08 2.4 2.15 2.13v1.33c-.8.26-1.88.53-2.68.53-2.14 0-2.4-1.6-3.2-3.47l-1.6-5.08zM5.08 51.26c0 4 0 6.68 0 10.42h2.4c2.4 0 3.22-1.34 3.22-3.47V55c0-2.4-.8-3.47-3.2-3.47H5.07v-.27zM20.06 74.23v-1.07l1.6-1.07c0-6.95 0-14.16 0-21.1l-1.34-.8v-.8c4.28 0 8.3 0 12.57 0V55H31l-1.07-3.47H25.4c0 3.2 0 6.14 0 9.35h3.48l.8-1.87h1.07c0 1.88 0 4.28 0 6.15h-1.07l-.8-1.87H25.4c0 2.67 0 5.34 0 7.74 0 .54-.26.8-.8 1.07v.26c2.14 0 4 0 6.15 0l1.34-3.47h1.6v5.6c-4.55-.27-9.1-.27-13.64-.27zM44.93 72.1c1.87 0 2.67-1.34 2.67-2.95v-2.93c0-4.54-9.1-2.67-9.1-9.08V54.2c0-3.74 2.68-5.07 5.63-5.07 1.33 0 2.94.27 4 1.6h.27l.27-1.33h2.4c0 2.13 0 4.53 0 6.67h-3.74V54.2c0-1.87-1.07-2.67-2.67-2.67-1.6 0-2.4 1.07-2.4 2.67v2.94c0 4.27 9.1 2.4 9.1 9.08v2.93c0 4-3.22 5.34-6.7 5.34s-6.42-1.6-6.42-5.6V67h4v1.87c.28 2.4 1.08 3.2 2.7 3.2zM65.25 51.26c0 6.68 0 13.62 0 20.3l1.6 1.06v1.34c-2.13 0-4.8 0-6.95 0v-1.34l1.6-1.06c0-6.68 0-13.62 0-20.3h-2.67l-1.07 4h-1.6l.27-6.4h14.44l.27 6.4h-1.6l-1.35-4h-2.95zM75.95 72.36l1.34.53v1.06h-5.1V72.9l1.34-.8c1.87-7.5 3.75-16.03 5.62-23.24h3.74l5.62 23.23 1.33.8v1.06h-6.4v-.8l1.32-.8-1.07-5.08h-6.68l-1.07 5.08zm1.6-6.94h5.62L80.5 53.4l-2.95 12.02zM104.83 67.82V51.26l-1.34-.8V49.4h5.34v1.06l-1.34.8v16.56c0 4.8-2.94 6.67-6.68 6.67-3.74 0-6.7-2.14-6.7-6.68V51.26l-1.6-1.06v-1.07h6.96v1.07l-1.6 1.06v16.56c0 2.94 1.33 4 3.47 4 2.4 0 3.48-1.06 3.48-4zM122.2 66.22c-.8-1.87-1.32-2.4-3.46-2.4 0 2.13 0 5.87 0 8.27l1.6 1.06v1.07c-2.14 0-4.8 0-6.68 0v-1.07L115 72.1c0-6.95 0-13.9 0-20.84l-1.34-.8V49.4h7.22c3.74 0 6.95 1.33 6.95 5.87v3.2c0 2.94-1.6 4.8-4 5.34 1.06.55 1.6 1.35 1.86 2.42l1.6 4.54c.26 1.06 1.06 2.4 2.13 2.13v1.33c-.8.26-1.87.53-2.67.53-2.14 0-2.4-1.6-3.2-3.47l-1.35-5.08zm-3.46-14.96c0 4 0 6.68 0 10.42h2.4c2.4 0 3.2-1.34 3.2-3.47V55c0-2.4-.8-3.47-3.2-3.47h-2.4v-.27zM135.85 72.36l1.34.53v1.06h-4.82V72.9l1.33-.8c1.9-7.5 3.76-16.03 5.63-23.24h3.74l5.62 23.23 1.33.8v1.06h-6.42v-.8l1.34-.8-1.06-5.08h-6.7l-1.33 5.08zm1.6-6.94h5.62L140.4 53.4l-2.94 12.02zM159.12 72.9v1.06c-1.87 0-3.75 0-5.62 0V72.9l1.6-.8c0-6.95 0-13.9 0-21.1l-1.33-.8v-1.07c1.6 0 2.4 0 4.28 0 1.6 0 1.87.27 2.14 1.6l3.46 11.2 1.6 6.96c0-1.88-.26-4.3-.26-6.15v-11.5l-1.34-.8V49.4c1.88 0 3.48 0 5.35 0v1.06l-1.32.8c0 7.75 0 15.22 0 22.97h-2.95c-.8 0-1.33-.54-1.6-1.34l-5.88-20.03.53 3.47c0 5.07 0 10.4 0 15.48l1.34 1.07zM182.38 51.26c0 6.68 0 13.62 0 20.3l1.6 1.06v1.34c-2.13 0-4.8 0-6.94 0v-1.34l1.6-1.06c0-6.68 0-13.62 0-20.3h-2.67l-1.07 4h-1.6l.26-6.4H188l.27 6.4h-1.6l-1.34-4h-2.95z"/></g><defs><clipPath id="a"><path fill="#fff" d="M0 0h188v106H0z"/></clipPath></defs></svg>