<svg xmlns="http://www.w3.org/2000/svg" width="159" height="105" fill="none"><g fill="#C4C4C4" clip-path="url(#a)"><path fill-rule="evenodd" d="M158.32 51.48c.68.23.9 1.13.68 1.8-.23.7-1.13.9-1.8.7-.68-.24-.9-1.14-.68-1.82.22-.68 1.13-.9 1.8-.68zm-155.84.68c.23.68 0 1.36-.68 1.8-.67.23-1.35 0-1.8-.67-.23-.7 0-1.36.68-1.82.67-.45 1.58 0 1.8.68z" clip-rule="evenodd"/><path d="M7.9 38.4c2.93-1.14 4.96 0 6.3 2.92l.23.68-2.7.9-.45-.67c-.45-1.36-1.36-1.6-2.26-1.36-.9.45-1.35 1.13-.68 2.48 1.58 3.84 7.67 2.26 9.93 7.68 1.13 3.16.45 5.42-2.48 6.55-2.94 1.13-5.2 0-6.33-2.94l-.45-1.12 2.7-1.13.46 1.34c.45 1.36 1.35 1.58 2.25 1.13.9-.45 1.36-1.13.9-2.48-1.57-3.85-7.66-2.27-9.92-7.7-1.1-2.93-.2-5.18 2.5-6.3zM31.12 51.94l-3.15.9-5.64-19.65 3.16-.9 2.47 8.35 3.6-.9-2.48-8.36 3.15-.92 5.64 19.65-3.17.9-2.48-8.35-3.6.9 2.47 8.36zM43.3 32.97c-.45-3.16.9-5.42 4.06-5.87 3.16-.45 5.2 1.13 5.64 4.3l1.8 10.37c.46 3.17-.9 5.42-3.83 5.88-3.16.45-5.2-1.13-5.64-4.3L43.3 32.97zm5.2 10.16c.2 1.35.9 1.8 2.02 1.8.9-.22 1.58-.9 1.35-2.25L49.84 31.6c-.22-1.34-.9-1.8-2.03-1.8-.9.23-1.57.9-1.34 2.26l2.03 11.07zM72.62 29.8l.23 2.72c.22 3.16-1.36 5.2-4.5 5.42h-1.6l.46 7.67-3.15.24-1.35-20.32 4.73-.23c3.16-.46 4.97 1.12 5.2 4.5zM66.08 28l.45 7h1.58c1.14 0 1.6-.68 1.36-2.03l-.22-3.16c0-1.35-.68-1.8-1.8-1.8h-1.36zM85.03 30.26l-.68 14.9-2.93-.22.9-20.33 4.06.24 2.7 12.42.46-12.2 2.93.23-.9 20.3-3.16-.44-3.37-14.9zM110.74 47.87l-3.16-.45v-3.84l-4.06-.68-1.13 3.62-2.94-.46 6.3-19.64 4.75.68.24 20.77zm-6.32-7.68l3.16.44V30.26l-3.16 9.93zM126.52 45.4l5.87-13.34 4.27 1.13-5.4 19.64-2.94-.9 3.83-14-6.1 13.54-2.92-.9 1.58-14.45-3.83 14-2.72-.68 5.4-19.64 4.3 1.14-1.36 14.45zM146.82 46.06l4.06 1.58-1.13 2.7-4.06-1.57-2.26 5.65 5.2 2.03-1.14 2.7-8.12-3.38 7.67-18.96 8.12 3.4-.9 2.7-5.2-2.03-2.25 5.2z"/><path fill-rule="evenodd" d="M79.6 50.58c-4.27 0-14.42.23-24.12 1.8-9.7 1.36-18.94 3.85-22.1 4.97-5.87 1.8-9.47 3.17-11.5 4.07-2.03.9-2.7 1.13-2.7 1.35 0 0 .67 0 2.92-.67 2.03-.68 5.64-2.04 11.5-3.62 3.16-.9 12.4-3.38 22.1-4.74 9.7-1.35 19.63-1.8 23.9-1.8 4.3 0 14.22.22 23.92 1.8 9.7 1.36 18.94 3.84 22.1 4.74 5.87 1.58 9.47 2.94 11.5 3.62 2.03.67 2.7.9 2.94.67 0 0-.46-.45-2.7-1.35-2.04-.9-5.65-2.26-11.5-4.07-3.17-.9-12.42-3.6-22.1-4.96-9.94-1.37-20.1-1.82-24.15-1.82zM79.6 17.84c2.5 0 6.78 0 11.97.45 5.18.22 11.05.9 16.9 1.8 5.88.9 11.5 2.03 16.25 3.16 4.74 1.13 8.57 2.26 10.37 2.7 7.2 2.27 11.27 3.85 13.75 4.75 2.48 1.14 3.16 1.36 3.16 1.6 0 0-.9-.24-3.37-.9-2.48-.92-6.77-2.5-14-4.53-2.02-.45-5.63-1.58-10.36-2.7-4.74-1.14-10.38-2.27-16.24-3.17-5.86-.9-11.73-1.36-16.7-1.8-5.18-.23-9.24-.46-11.94-.46-2.5 0-6.78 0-11.97.45-5.18.22-11.05.9-16.7 1.8-5.85.9-11.5 2.03-16.22 3.16-4.73 1.13-8.34 2.03-10.37 2.7-7 2.04-11.27 3.62-13.98 4.53-2.48.9-3.38 1.12-3.38.9 0 0 .67-.46 3.15-1.6 2.48-1.12 6.77-2.7 13.76-4.96 2.03-.68 5.64-1.58 10.38-2.7 4.73-1.14 10.37-2.27 16.23-3.17 5.86-.9 11.72-1.35 16.9-1.8 5.42-.23 9.7-.23 12.4-.23zM78.03 63.23c-.45.22-.9.22-1.12.45L75.8 63c-.23-.23-.45-.23-.68 0l-.67.45-.68.68c-.23.23-.23.45 0 .68l.68 1.14c-.23.45-.46.9-.46 1.12l-1.35.23c-.22 0-.45.22-.45.44v1.8c0 .23.23.46.45.46l1.35.23c.23.45.23.9.46 1.13l-.68.9c-.23.22-.23.45 0 .68l.68.67.67.7c.23.22.45.22.68 0l1.13-.7c.46.24.9.46 1.13.46l.23 1.36c0 .23.23.45.45.45h1.8c.24 0 .47-.22.47-.45l.22-1.36c.44-.22.9-.22 1.12-.45l1.13.7c.22.22.45.22.67 0l.68-.7.68-.66c.22-.23.22-.46 0-.68l-.68-1.13c.23-.45.45-.9.45-1.13l1.35-.23c.23 0 .46-.22.46-.45v-1.58c0-.22-.23-.45-.46-.45l-1.35-.24c-.22-.45-.22-.9-.45-1.12l.68-1.13c.22-.22.22-.44 0-.67l-.68-.68-.68-.68c-.22-.22-.45-.22-.67 0l-1.13.68c-.45-.22-.9-.45-1.13-.45l-.23-1.35c0-.23-.23-.46-.46-.46h-1.8c-.2 0-.44.22-.44.45l-.23 1.58zm1.36 2.7c1.57 0 2.7 1.13 2.7 2.72 0 1.58-1.13 2.7-2.7 2.7-1.6 0-2.72-1.12-2.72-2.7.23-1.6 1.35-2.7 2.7-2.7z" clip-rule="evenodd"/><path d="M78.26 99.8l1.35 1.36 1.37-1.35v-.22c0-.45.45-.9.9-.9s.9.45.9.9-.45.9-.9.9h-.23l-1.35 1.36 1.34 1.35h.23c.45 0 .9.44.9.9 0 .45-.45.9-.9.9s-.9-.45-.9-.9v-.23l-1.36-1.35-1.34 1.35v.23c0 .45-.45.9-.9.9s-.9-.45-.9-.9.45-.9.9-.9h.22l1.36-1.36-1.36-1.36h-.22c-.45 0-.9-.45-.9-.9s.45-.9.9-.9.9.45.9.9c0 .23 0 .23 0 .23z"/><path fill-rule="evenodd" d="M70.6 11.74s-.23 0-.23-.22l-.23-.9v-.23l.23-.24c2.93-.22 6.1-.22 9.02-.22s6.08 0 9 .22c0 0 .23 0 .23.23v.2l-.22.92c0 .22-.22.22-.22.22-2.93-.22-5.86-.22-8.8-.22-2.92 0-5.86 0-8.8.22zm18.48-2.48c-3.15 0-6.3-.23-9.7-.23-3.15 0-6.3 0-9.47.23-.2 0-.2 0-.2-.23l-1.36-4.5v-.24h.22c1.8.44 3.6 1.12 5.4 1.57h.24c1.58-1.8 3.16-3.84 4.96-5.64 0 0 .23 0 .23-.23 0 0 .2 0 .2.23 1.6 1.8 3.4 3.83 4.97 5.64 0 0 .23.23.23 0 1.8-.68 3.6-1.13 5.4-1.58.24 0 .24 0 .24 0v.22l-1.36 4.5c.23.24 0 .24 0 .24zM110.5 10.4c0 .2 0 .2 0 0l-1.8 1.12.46 2.03s0 0 0 .22l-1.36-1.35-1.8.9s0 0-.23 0c0 0 0 0 0-.22l.68-1.8-1.35-1.36s0 0 0-.23c0 0 0 0 .22 0l2.03.24.9-1.8s0 0 .23 0l.23 2.02 1.8.23zm-9.46-1.82c0 .23 0 .23 0 0L99 9.94l.46 2.25v.22l-1.8-1.58-2.03 1.13s0 0-.23 0c0 0 0 0 0-.23l.9-2.26-1.8-1.58s0 0 0-.22c0 0 0 0 .22 0l2.26.22.9-2.03s0 0 .23 0c0 0 0 0 .23 0l.45 2.26 2.26.45zm-61.12 3.84c0 .23 0 .23 0 0l1.58.9-.23 1.58 1.13-1.13 1.58.68s0 0 0-.22l-.68-1.58 1.13-1.13s0 0 0-.23l-1.58.67-.9-1.58-.23 1.57-1.8.45zm8.57-2.03c0 .2 0 .2 0 0l1.8 1.12-.46 2.03s0 0 0 .22l1.36-1.35 1.8.9s0 0 .23 0c0 0 0 0 0-.22l-.68-1.8 1.35-1.36s0 0 0-.23c0 0 0 0-.22 0l-1.8.24-.9-1.8s0 0-.24 0l-.45 2.02-1.8.23zm9.46-1.82c0 .23 0 .23 0 0L60 9.94l-.46 2.25v.22l1.8-1.58 2.03 1.13h.23s0 0 0-.23l-.9-2.26 1.8-1.58s0 0 0-.22c0 0 0 0-.22 0l-2.26.22-.9-2.03s0 0-.23 0c0 0 0 0-.23 0l-.45 2.26-2.26.45zm61.12 4.07l-1.58.67.23 1.58-1.13-1.13-1.58.9s0 0 0-.22l.68-1.58-1.13-1.13s0 0 0-.22l1.58.22.9-1.58.23 2.03 1.8.45c0-.23 0-.23 0 0z" clip-rule="evenodd"/><path d="M39.47 86.26c0-.23 0-.45 0-.45 0-.22-.23-.45-.45-.45-.23 0-.23 0-.23.23 0 0-.23.23-.23.45 0 0 0 .23.22.23 0 0 .22.22.67.45.22.24.45.24.67.46 0 .23.23.23.23.45 0 .24 0 .46-.23.7 0 .22-.22.22-.45.44-.46.23-.9.45-1.36.45-.23 0-.68 0-.9-.23-.23-.23-.45-.23-.45-.45 0-.23 0-.46.2-.46.24 0 .24-.22.46-.22.23 0 .45 0 .45.22 0 .23 0 .23 0 .46 0 .22.24.45.47.45.22 0 .22 0 .22 0l.22-.23c0-.22-.23-.45-.68-.68-.45-.22-.45-.45-.68-.45-.22-.2-.22-.2-.22-.44 0-.22 0-.45.22-.68.23-.22.23-.45.45-.45.47-.22.92-.45 1.37-.45.22 0 .67 0 .67.23.23.23.23.23.23.46 0 .22 0 .45-.23.45-.22.24-.22.24-.45.24 0-.68 0-.68-.23-.68zM41.27 88.52c-.22-.23-.22-.23-.22-.46 0-.22 0-.45 0-.67 0-.24 0-.7.22-.92 0-.22.23-.45.45-.67.45-.45.9-.67 1.58-.67.23 0 .45 0 .68.22l1.35-.22-.45 2.93v.45s.23 0 .23.22c0 .23-.22.23-.44.45-.23 0-.46.22-.68.22-.23 0-.45 0-.45 0-.23 0-.23-.23-.23-.23 0 .22-.22.22-.45.22-.22 0-.45.22-.68.22-.22 0-.45 0-.67 0 0-.9-.23-.9-.23-1.12zm1.36-2.94s0 .23-.23.45c0 .23-.23.45-.23.9 0 .46-.22.68-.22 1.13 0 .23 0 .46 0 .46s0 .22.22.22c.23 0 .23 0 .46-.22.22-.23.22-.46.22-.68l.45-2.03-.22-.22c0-.23 0-.23-.45 0 .22-.23.22 0 0 0zM45.56 88.06c0-.22 0-.45 0-.67l.45-2.05h-.44v-.22c.67-.23 1.13-.45 1.8-.9h.45l-.2.9h.66v.22h-.67l-.46 2.04c0 .2 0 .44 0 .66 0 .23 0 .46.22.46 0 .22-.22.22-.22.45-.23 0-.45.22-.68.22-.23 0-.45 0-.68-.23-.22-.45-.22-.68-.22-.9zM49.84 88.3c-.22.44-.45.44-.9.44-.23 0-.45 0-.68-.22-.22-.23-.22-.23-.22-.46 0-.45 0-.9.22-1.8l.23-1.36 1.57-.22-.45 2.26c0 .45-.23.67-.23.67.22.7.22.7.44.7zM48.7 84c0-.23 0-.23.24-.45.23 0 .45-.23.68-.23.22 0 .45 0 .45.23.22 0 .22.22.22.45s0 .23-.23.45c-.23 0-.45.23-.68.23-.23 0-.46 0-.46-.23 0 0-.23-.22-.23-.45zM52.55 86.26c0-.23 0-.45 0-.45 0-.22-.23-.45-.45-.45-.23 0-.23 0-.23.23 0 0-.22.23-.22.45 0 0 0 .23.22.23 0 0 .23.22.68.45.22.24.45.24.68.46 0 .23.22.23.22.45 0 .24 0 .46-.22.7 0 .22-.23.22-.46.44-.45.23-.9.45-1.35.45-.22 0-.68 0-.9-.23-.23-.23-.45-.23-.45-.45 0-.23 0-.46.22-.46s.22-.22.44-.22c.23 0 .46 0 .46.22 0 .23 0 .23 0 .46 0 .22.22.45.45.45.22 0 .22 0 .22 0l.23-.23c0-.22-.23-.45-.68-.68-.45-.22-.45-.45-.68-.45-.22-.2-.22-.2-.22-.44 0-.22 0-.45.22-.68.23-.22.23-.45.46-.45.45-.22.9-.45 1.35-.45.22 0 .68 0 .68.23.22.23.22.23.22.46 0 .22 0 .45-.22.45-.23.24-.23.24-.46.24 0-.68 0-.68-.22-.68zM56.83 84.45c0-.22 0-.22 0-.45s0-.23-.22-.23-.44.23-.44.68v.68h.67v.22h-.67l-.68 3.4-1.35.22.67-3.62h-.67v-.22h.45l.22-.68c0-.45.23-.68.68-.68.23-.22.68-.22 1.13-.22.46 0 .68 0 .9.22.24.23.24.23.24.46 0 .22 0 .22-.23.45-.22 0-.22.22-.44.22.22-.22 0-.22-.23-.45zM57.06 88.52c-.23-.23-.23-.23-.23-.46 0-.22 0-.45 0-.67 0-.24 0-.7.23-.92 0-.22.22-.45.45-.67.46-.45.9-.67 1.6-.67.2 0 .44 0 .67.22l1.35-.22-.45 2.93v.45s.22 0 .22.22c0 .23-.23.23-.46.45-.22 0-.45.22-.67.22-.23 0-.46 0-.46 0-.2 0-.2-.23-.2-.23 0 .22-.24.22-.46.22-.23 0-.45.22-.68.22-.22 0-.45 0-.68 0 0-.9 0-.9-.22-1.12zm1.58-2.94s0 .23-.23.45c0 .23 0 .45-.2.9 0 .46-.24.68-.24 1.13 0 .23 0 .46 0 .46s0 .22.23.22c.2 0 .2 0 .44-.22.22-.23.22-.46.22-.68l.45-2.03-.2-.22c-.24-.23-.24-.23-.46 0 0-.23 0 0 0 0zM64.95 85.8c0 .23 0 .46-.22.46-.23.22-.45.22-.68.22-.22 0-.22 0-.22 0 0-.22 0-.22 0-.45 0-.22 0-.22 0-.22 0-.22 0-.22-.23-.22 0 0-.23 0-.23.23s-.22.23-.22.46c-.23.45-.23.9-.23 1.35 0 .24 0 .46.23.46 0 0 .22.23.45.23s.45-.24.68-.46c0 0 0-.23.22-.23.23 0 .23.24.23.46 0 .23-.23.46-.45.68-.23.23-.68.23-1.13.23-.9 0-1.58-.45-1.58-1.58 0-.7.23-1.37.68-1.82.45-.45.9-.68 1.8-.68.45 0 .9.23.9.9zM65.18 88.06c0-.22 0-.45 0-.67l.45-2.05h-.45v-.22c.68-.23 1.13-.45 1.8-.9h.45l-.22.9h.7v.22h-.47l-.45 2.04c0 .2 0 .44 0 .66 0 .23 0 .46.23.46 0 .22-.22.22-.22.45 0 .22-.45.22-.67.22-.22 0-.44 0-.67-.23-.45-.45-.45-.68-.45-.9zM69.46 88.3c-.22.44-.45.44-.9.44-.22 0-.45 0-.67-.22-.24-.23-.24-.23-.24-.46 0-.45 0-.9.23-1.8l.2-1.36 1.6-.22-.46 2.26c0 .45-.23.67-.23.67.24.7.24.7.46.7zM68.34 84c0-.23 0-.23.22-.45.23 0 .45-.23.68-.23.22 0 .45 0 .45.23.2 0 .2.22.2.45s0 .23-.2.45c-.24 0-.46.23-.7.23-.2 0-.44 0-.44-.23 0 0-.22-.22-.22-.45zM71.72 88.97c-1.13 0-1.58-.45-1.58-1.58 0-.7.23-1.37.68-1.82.45-.45.9-.68 1.8-.68.45 0 .9.23 1.13.45.22.23.45.68.45 1.13 0 .68-.23 1.36-.68 1.8-.45.46-1.12.7-1.8.7zm.22-3.16c0 .23 0 .23-.22.46 0 .22 0 .45-.23.68 0 .22 0 .67 0 1.12 0 .23 0 .23 0 .23l.22.22h.22l.23-.23c0-.24.23-.46.23-.9 0-.46.22-.7.22-.92 0-.22 0-.22 0-.45 0-.22 0-.22 0-.22s0-.22-.22-.22h-.23c-.23 0-.23 0-.23.23zM77.58 88.97c-.67 0-.9-.23-.9-.68 0-.24 0-.24 0-.46l.23-.68c.23-.68.23-1.13.23-1.13 0-.22 0-.45-.22-.45s-.44.45-.67 1.13l-.45 2.27-1.58.22.68-3.85 1.12-.22-.22.68c.22-.45.68-.67 1.35-.67.45 0 .68 0 .68.22.23.23.23.46.23.68 0 .23 0 .9-.22 1.58 0 .24 0 .46 0 .7 0 .22 0 .22 0 .22s.23 0 .23.22c0 .23-.22.23-.22.45.23-.23 0-.23-.22-.23zM80.97 85.8c.22-.22.45-.45.67-.67.23-.23.45-.23.9-.23.23 0 .46 0 .68.23l1.35-.23-.45 2.7c-.22.92-.45 1.6-.9 2.05-.45.45-.9.45-1.58.45-.45 0-.9 0-1.13-.23-.2-.22-.44-.45-.44-.68 0-.23 0-.46.23-.46.2-.22.44-.22.67-.22.22 0 .45 0 .45.22 0 0 .22 0 .22.23 0 0-.22.22-.22.45s0 .23.22.23c.23 0 .68-.46.68-1.13 0-.23 0-.46.22-.68-.22.22-.67.45-1.12.45-.45 0-.68 0-.9-.24-.23-.22-.23-.45-.23-.9 0-.22 0-.45.2-.68.24-.22.47-.45.47-.67zm1.12 1.6c0 .2 0 .44.22.44s.22 0 .45-.23c0 0 .23-.2.23-.44l.45-1.8s0 0-.23 0c-.22 0-.45.22-.68.67-.45.45-.45.9-.45 1.36zM87.28 88.52c-.22.22-.68.45-1.13.45-.22 0-.45 0-.67-.23-.23-.22-.23-.45-.23-.68 0-.22 0-.22 0-.22l.45-2.7 1.58-.24-.45 2.94v.22c0 .23 0 .46.23.46.22 0 .45-.23.45-.46v-.22l.46-2.7 1.35-.24-.44 2.94v.45l.22.22c0 .22 0 .22-.22.22-.23.23-.45.23-.68.23-.22 0-.45 0-.45-.23-.45 0-.45-.22-.45-.22zM89.76 88.52c-.22-.23-.22-.23-.22-.46 0-.22 0-.45 0-.67 0-.24 0-.7.22-.92 0-.22.23-.45.45-.67.46-.45.9-.67 1.6-.67.22 0 .44 0 .67.22l1.35-.22-.45 2.93v.45s.23 0 .23.22c0 .23-.23.23-.46.45-.22 0-.45.22-.67.22-.23 0-.45 0-.45 0-.23 0-.23-.23-.23-.23 0 .22-.23.22-.46.22s-.45.22-.68.22c-.22 0-.45 0-.67 0 0-.9 0-.9-.24-1.12zm1.58-2.94s0 .23-.23.45c0 .23-.2.45-.2.9 0 .46-.24.68-.24 1.13 0 .23 0 .46 0 .46s0 .22.23.22c.2 0 .2 0 .44-.22.23-.23.23-.46.23-.68l.45-2.03-.23-.22c0-.23-.23-.23-.46 0 .23-.23 0 0 0 0zM96.3 86.7c.23-.22.23-.67.23-.9 0-.22 0-.22-.23-.22-.22 0-.22 0-.45.23-.22.23-.22.46-.22.68l-.46 2.26-1.57.23.67-3.84 1.13-.23-.23.68c.23-.45.68-.68 1.13-.68.23 0 .45 0 .68.23.22.22.22.45.22.68 0 .23 0 .46-.22.68-.23.23-.45.23-.9.23.45.24.45 0 .22 0zM98.1 88.52c-.22-.23-.22-.23-.22-.46 0-.22 0-.45 0-.67 0-.24 0-.7.23-.92 0-.22.23-.45.46-.67.45-.45.9-.67 1.58-.67.22 0 .45 0 .67.22l1.37-.22-.68 2.7v.46s.22 0 .22.22-.23.22-.46.45c-.22 0-.45.22-.67.22-.24 0-.46 0-.46 0-.23 0-.23-.23-.23-.23 0 .22-.2.22-.44.22-.23 0-.45.22-.68.22-.22 0-.45 0-.67 0 .46-.68.23-.68 0-.9zm1.6-2.94s0 .23-.24.45c0 .23 0 .45-.23.9 0 .46-.22.68-.22 1.13 0 .23 0 .46 0 .46s0 .22.23.22.23 0 .46-.22c.2-.23.2-.46.2-.68l.46-2.03-.22-.22c0-.23-.23-.23-.45 0 .2-.23.2 0 0 0zM105.55 88.97c-.68 0-.9-.23-.9-.68 0-.24 0-.24 0-.46l.22-.68c.23-.68.23-1.13.23-1.13 0-.22 0-.45-.23-.45-.22 0-.45.45-.67 1.13l-.45 2.27-1.58.22.67-3.85 1.13-.22-.22.68c.22-.45.67-.67 1.35-.67.45 0 .67 0 .67.22.23.23.23.46.23.68 0 .23 0 .9-.23 1.58 0 .24 0 .46 0 .7 0 .22 0 .22 0 .22s.23 0 .23.22c0 .23-.23.23-.23.45.23-.23 0-.23-.22-.23zM107.13 88.06c0-.22 0-.45 0-.67l.45-2.05h-.45v-.22c.67-.23 1.13-.45 1.8-.9h.45l-.22.9h.67v.22h-.45l-.45 2.04c0 .2 0 .44 0 .66 0 .23 0 .46.23.46 0 .22-.23.22-.23.45-.22 0-.45.22-.68.22-.22 0-.45 0-.67-.23-.23-.45-.45-.68-.45-.9zM112.54 87.6c.23 0 .23.24.23.46 0 .23 0 .23-.23.46 0 .22-.23.22-.45.22-.24.23-.7.23-.9.23-.24 0-.7 0-.92 0-.22 0-.45-.23-.45-.23-.22-.22-.45-.68-.45-1.13 0-.67.23-1.34.68-1.8.45-.45 1.13-.67 1.8-.67.45 0 .9 0 1.13.22.22.23.22.46.22.68 0 .9-.68 1.36-2.26 1.36 0 .2 0 .2 0 .44 0 .22 0 .45.23.45 0 0 .2.22.44.22.22 0 .45 0 .67-.23.02-.46.24-.7.24-.7zm-1.35-.9c.44 0 .66 0 .9-.22.22-.22.22-.45.22-.9v-.23s0 0-.23 0h-.24s-.22 0-.22.23c-.23.23-.45.68-.45 1.13zM116.6 87.6c.23 0 .23.24.23.46 0 .23 0 .23-.23.46 0 .22-.23.22-.45.22-.23.23-.68.23-.9.23-.23 0-.68 0-.9 0-.23 0-.46-.23-.46-.23-.23-.22-.46-.68-.46-1.13 0-.67.23-1.34.68-1.8.45-.45 1.13-.67 1.8-.67.45 0 .9 0 1.13.22.23.23.23.46.23.68 0 .9-.68 1.36-2.26 1.36 0 .2 0 .2 0 .44 0 .22 0 .45.23.45 0 0 .22.22.45.22.22 0 .45 0 .67-.23 0-.46 0-.7.23-.7zm-1.58-.9c.45 0 .68 0 .9-.22.23-.22.23-.45.23-.9v-.23s0 0-.23 0h-.22s-.23 0-.23.23c-.22.23-.45.68-.45 1.13zM119.76 84.9c.22 0 .22 0 .45 0v-.22s0-.23 0-.45l.23-.68 1.36-.23-.9 4.3c-.02 0-.02 0-.02.22v.45l.23.22c0 .22-.2.45-.67.45 0 0-.22 0-.45 0-.22 0-.22 0-.45 0-.22 0-.22-.23-.22-.23 0 .23-.22.23-.44.23-.23 0-.46 0-.68 0-.23 0-.45 0-.68 0-.22 0-.45-.23-.45-.23-.22-.22-.22-.68-.22-1.13 0-.66.22-1.34.67-1.8.9-.67 1.58-.9 2.26-.9zm0 .45c-.23 0-.23 0-.45.23 0 .23-.22.45-.22 1.13 0 .46-.22.9-.22 1.36 0 .23 0 .46.22.46.23 0 .23 0 .45-.23 0-.24.23-.46.23-.7l.45-2.02c-.22-.23-.22-.23-.44-.23zM48.5 67.52h-1.36v1.13h1.12v.45h-1.12v1.13h1.35v.45h-2.04V66.6h2.03v.92zM53.68 66.84c.45 0 .67.22.67.68v.67h-.67v-.46c0-.22 0-.22-.23-.22h-.22c-.23 0-.23 0-.23.22v.68l1.35.45s.23 0 .23.23v1.35c0 .45-.23.68-.68.68h-.67c-.46 0-.68-.23-.68-.68v-.68h.68v.46c0 .22 0 .22.22.22h.23c.22 0 .22 0 .22-.22v-.68l-1.35-.45s-.23 0-.23-.23v-1.35c0-.46.23-.68.68-.68h.68zM60.44 66.84v.68h-.67v3.6h-.68v-3.6h-.7v-.46h2.04v-.22zM64.28 66.84h1.35c.45 0 .68.22.68.68v2.7c0 .46-.22.68-.67.68h-1.35v-4.06zm1.35 3.6s.23 0 0 0l.23-2.7c0-.22 0-.22-.23-.22h-.45v2.93h.45zM93.14 69.77v.68h.68v-.22h.45v.9h-1.8v-1.58s0-.23.22-.23l1.35-.67v-.9c0-.23 0-.23-.23-.23h-.22c-.23 0-.23 0-.23.22v.45h-.9v-.68c0-.46.22-.68.67-.68h.68c.45 0 .68.22.68.68v1.35s0 .23-.23.23l-1.13.67zM98.33 67.52c0-.46.23-.68.68-.68h.7c.44 0 .66.22.66.68v2.7c0 .46-.22.68-.67.68h-.47c-.45 0-.67-.22-.67-.67v-2.7h-.23zm1.36 2.93c.2 0 .2 0 0 0l.2-2.7c0-.23 0-.23-.2-.23h-.24c-.23 0-.23 0-.23.22v2.5c0 .2 0 .2.23.2h.23zM104.65 67.52c0-.46.22-.68.67-.68h.68c.45 0 .68.22.68.68v2.7c0 .46-.23.68-.68.68h-.68c-.45 0-.67-.22-.67-.67v-2.7zm1.13 2.93c.22 0 .22 0 0 0l.22-2.7c0-.23 0-.23-.22-.23h-.23c-.23 0-.23 0-.23.22v2.5c0 .2 0 .2.23.2h.23zM111.4 69.77v.68h.7v-.22h.67v.9h-2.03v-1.58s0-.23.22-.23l1.36-.67v-.9c0-.23 0-.23-.23-.23h-.24c-.22 0-.22 0-.22.22v.45h-.68v-.68c0-.46.23-.68.68-.68h.67c.47 0 .7.22.7.68v1.35s0 .23-.23.23l-1.36.67z"/></g><defs><clipPath id="a"><path fill="#fff" d="M0 0h159v105H0z"/></clipPath></defs></svg>