<svg xmlns="http://www.w3.org/2000/svg" width="149" height="118" fill="none"><g clip-path="url(#a)"><path fill="#C4C4C4" fill-rule="evenodd" d="M73.34 0c4.22 2.12 5.7 4.88 6.34 7.22.84 4.24-2.12 7.85-1.7 11.67 0 .2 0 .4-.2.4-.22 0-.43 0-.43 0-1.7-1.26-3.38-3.38-2.74-7.84-1.9 1.9-2.53 4.46-2.53 7.22 0 .2 0 .42-.2.42-.22 0-.43 0-.43-.2-3.6-3.83-1.9-7.86-.22-10.84 1.27-2.54 2.96-5.1 1.7-7.64 0-.2 0-.42 0-.42s.2 0 .42 0zM65.73 11.46c0-.2-.2-.42-.42-.42-.2 0-.42 0-.42.2-1.05 2.56-.63 6.8 1.27 7.65 1.06.63 2.33 0 1.27-2.77-.63-1.27-1.7-2.97-1.7-4.67zM83.48 11.46c-.2 1.7-1.27 3.4-1.7 4.88-1.05 2.76.22 3.4 1.28 2.76 1.9-1.06 2.32-5.1 1.27-7.64 0-.2-.2-.2-.42-.2-.42-.22-.42 0-.42.2zM50.5 49.45c7.2 3.18 15.44 4.88 24.1 4.88 8.67 0 16.7-1.7 24.1-4.88.2 0 .2-.2.2-.43 0-.2-.2-.42-.4-.42H50.7c-.2 0-.42.2-.42.42-.2.22 0 .43.2.43zM100.6 25.47c-1.7-1.9-4.65-2.34-6.97-1.06 0-.42 0-.63-.2-1.05 0-.64-.65-1.07-1.07-1.07H56.64c-.63 0-1.06.43-1.06 1.07-.2.84-.2 1.7-.2 2.54 0 10.6 8.66 19.3 19.23 19.3 4.87 0 9.3-1.9 12.7-4.88 2.52-2.12 2.3-2.33 5.9-2.97 4.02-.85 8.25-2.76 8.88-7.43 0-1.48-.42-3.18-1.48-4.45zm-1.27 4.24c-.42 3.4-3.8 4.68-6.76 5.1-.42 0-.85.22-1.06.22.86-1.5 1.5-3.2 1.7-4.67.22-1.27 0-2.34 1.06-3.18 1.27-1.07 3.17-1.07 4.44 0 .63.84.84 1.7.63 2.54zM29.17 107.18h90.45v.42H29.17v-.42zm0-11.46h90.45v.42H29.17v-.42zM91.1 115.24c-.22 0-.43.2-.43.64 0 .2.2.42.42.42.2 0 .4-.2.4-.42.22-.43 0-.64-.4-.64zm-33.2 0c-.2 0-.62.2-.62.64 0 .2.2.42.63.42.22 0 .43-.2.43-.42 0-.43-.2-.64-.42-.64z" clip-rule="evenodd"/><path fill="#C4C4C4" d="M30.65 102.08c0 .43-.22.64-.43.64l.43 1.27H30l-.4-1.28h-.43V104h-.64v-4.04h1.27c.42 0 .63.2.63.64v1.48h.22zm-.85 0c.2 0 .2 0 0 0l.2-1.06c0-.2 0-.2-.2-.2h-.42v1.26h.42zM35.72 100.6s0 .2 0 0h-1.27v1.06h1.06v.42h-1.05v1.06h1.27v.85h-1.9v-4.04h1.9v.64zM40.37 99.96c.2 0 .2.2 0 0v.64h-.64v3.4h-.63v-3.4h-.63v-.43h1.9v-.2zM45.44 102.08c0 .43-.2.64-.42.64l.42 1.27h-.63l-.42-1.28h-.42V104h-.63v-4.04h1.26c.42 0 .63.2.63.64v1.48h.2zm-.85 0s.2 0 0 0l.2-1.06c0-.2 0-.2-.2-.2h-.43v1.26h.42zM48.2 100.8c0-.4.2-.63.62-.63h.64c.42 0 .63.22.63.64v2.56c0 .42-.22.63-.64.63h-.64c-.42 0-.63-.22-.63-.64v-2.55zm1.26 2.77s.2-.2 0 0l.2-2.55c0-.2 0-.2-.2-.2h-.22c-.2 0-.2 0-.2.2v2.34c0 .2 0 .2.2.2h.22zM56.43 104.2s-.2 0 0 0l-.2-.84h-.86l-.2.63h-.64l.84-4.04H56l1.06 4.03h-.63v.2zm-.63-3.18l-.43 1.7H56l-.2-1.7zM61.7 99.96s0 .2 0 0v3.4c0 .42-.2.63-.62.63h-.63c-.43 0-.64-.22-.64-.64v-3.2h.43v3.2c0 .2 0 .2.22.2h.2c.22 0 .22 0 .22-.2v-3.2h.84v-.2zM66.57 99.96s0 .2 0 0v.64h-.63v3.4h-.63v-3.4h-.63v-.43h1.9v-.2zM70.8 100.17s0-.2 0 0h.64V104H71v-1.7h-.62v1.7h-.42v-4.04h.42v1.7H71v-1.5h-.2zM76.5 100.6s0 .2 0 0h-1.26v1.06h.85v.42h-1.07v1.06h1.27v.85h-1.9v-4.04h1.9v.64h.2zM81.58 99.96s0 .2 0 0V104h-.42l-.85-2.13V104h-.62v-4.04h.42l.85 2.12v-2.12h.63zM86.44 99.96s0 .2 0 0v.64h-.63v3.4h-.63v-3.4h-.63v-.43h1.9v-.2zM89.82 99.96s.2.2 0 0V104h-.63v-4.04h.62zM94.9 101.45h-.64v-.43c0-.2 0-.2-.2-.2h-.22c-.2 0-.2 0-.2.2v2.34c0 .2 0 .2.2.2h.2c.22 0 .22 0 .22-.2v-.43h.42v.64c0 .42-.2.64-.63.64h-.63c-.43 0-.64-.2-.64-.63v-2.55c0-.42.2-.63.64-.63h.63c.42-.02.63.2.63.62v.43h.22zM100.4 99.96c.4 0 .62.2.62.64v.63h-.63v-.42c0-.2 0-.2-.22-.2h-.2c-.22 0-.22 0-.22.2v.65l1.26.42s.22 0 .22.2v1.3c0 .4-.22.62-.64.62h-.63c-.43 0-.64-.22-.64-.64v-.64h.64v.42c0 .22 0 .22.2.22h.22c.2 0 .2 0 .2-.22v-.63l-1.27-.42s-.2 0-.2-.2v-1.28c0-.43.2-.64.63-.64h.63zM105.89 99.96c-.02 0-.02.2-.02 0v.64h-.63v3.4h-.63v-3.4h-.64v-.43h1.9v-.2zM110.96 99.96c.2 0 .2.2 0 0l-.85 2.34v1.7h-.4v-1.7l-.86-2.34v-.2h.43s0 0 .2 0l.64 1.47.65-1.48s0 0 .2 0v.2zM114.55 103.57h1.27v.42h-1.9v-4.04h.63v3.6zM120.68 100.6s0 .2 0 0h-1.27v1.06h1.07v.42h-1.06v1.06h1.07v.85h-1.9v-4.04h1.9v.64h.2z"/><path fill="#C4C4C4" fill-rule="evenodd" d="M145.2 62.4l-16.28-17.83c-7.4 6.8-16.06 12.1-25.36 15.7-9.1 3.6-19.02 5.52-28.95 5.52s-19.86-1.92-29.16-5.53c-9.3-3.6-17.96-8.9-25.36-15.7L4.02 62.4c9.5 8.7 20.7 15.7 32.75 20.37 12.05 4.67 24.94 7.22 37.84 7 12.9 0 25.8-2.33 37.84-7.2C124.48 78.1 135.7 71.1 145.2 62.4zm-13.32-2.98c-.63.43-1.27.43-1.7-.2-.4-.43-.2-1.28.22-1.7.63-.43 1.27-.43 1.7.2.4.43.2 1.28-.22 1.7zM16.9 57.72c.43-.42 1.06-.63 1.7-.2.42.42.63 1.06.2 1.7-.4.42-1.05.63-1.68.2-.42-.42-.63-1.27-.2-1.7zM6.76 56.24l9.5-10.2 3.82-4.02c3.17 1.28 6.55 2.34 9.72 2.97.2 0 .2 0 .2-.22 0-.2 0-.2 0-.2-4.43-3.2-8.44-7.02-11.82-11.26h-.22s-.2 0-.2.2c-2.12 3.62-4.02 7.23-5.7 10.84C8.23 46.06 4.22 47.33.2 48.6c-.2.2-.2.2-.2.43v.2c2.1 2.55 4.44 4.9 6.76 7zm125.75-9.97l-3.8-4.04c-3.16 1.28-6.54 2.34-9.7 2.98-.22 0-.22 0-.22-.2 0-.22 0-.22 0-.22 4.44-3.18 8.45-7 12.04-11.25h.22s.2 0 .2.2c2.12 3.62 4.02 7.23 5.7 10.84 3.82 1.7 7.83 2.97 11.85 4.24 0 0 .2 0 .2.23v.2c-2.1 2.55-4.44 4.9-6.76 7l-9.73-9.96z" clip-rule="evenodd"/><path fill="#fff" d="M28.74 62.6l-1.48-1.05h.22c.63-.85.84-1.9-.22-2.55-.63-.42-1.7-.42-2.32.85-.42.64-2.75 4.46-3.17 5.1-.85 1.27-.64 2.1.2 2.54 1.07.63 1.7.2 2.34-.86l.43-.64 1.48 1.06-.42.64c-1.05 1.9-2.95 1.7-4.43.85-1.7-1.06-2.33-2.76-1.06-4.67.4-.64 2.74-4.46 3.16-5.1 1.06-1.7 2.75-2.1 4.44-.84.63.42 1.27 1.06 1.27 1.7l.42-.43 1.05.65-1.9 2.76zM37 73.22c-.86 1.7-2.55 2.33-4.45 1.5-1.9-.86-2.54-2.56-1.7-4.47l2.54-5.52c.84-1.7 2.53-2.33 4.43-1.5 1.9.86 2.54 2.56 1.7 4.47l-2.54 5.52zm-4.66-2.12c-.64 1.27-.43 2.12.63 2.54 1.06.43 1.9-.2 2.33-1.06l2.53-5.5c.42-1.08.42-2.14-.63-2.56-1.06-.43-1.9 0-2.33 1.27l-2.53 5.3zM50.3 71.3l-.84-.2v-1.9l-2.54-.86c-.42 1.48-.85 2.97-1.48 4.24l1.7.64.62-.85.43.2c-.22.86-.65 1.92-.86 2.77l-.42-.2.42-.86-1.7-.64c-.4 1.5-.83 2.76-1.26 4.25l.64.63-.2.42c-.86-.2-2.13-.64-3.18-1.06l.2-.44.85-.2c1.05-3.2 2.1-6.37 3.16-9.56l-.42-.63.2-.43c1.9.64 4.03 1.27 6.14 1.9l-1.48 2.77zM60.87 73.64l-.85-.2-.2-1.92-2.54-.42c-.22 1.48-.64 2.97-.85 4.45l1.9.43.64-.85h.42c-.22.85-.43 2.12-.65 2.97h-.42l-.2-1.06-1.9-.42c-.22 1.48-.65 2.97-.86 4.45l.64.64v.43c-1.05-.2-2.32-.42-3.16-.63v-.43l.84-.42c.64-3.4 1.27-6.58 1.9-9.98l-.42-.63v-.43c2.12.44 4.23.86 6.13 1.3l-.43 2.74zM64.46 83.4V83l.85-.42c.22-3.4.43-6.8.64-10.2l-.63-.4v-.44c2.12.2 4.02.2 6.14.43l-.22 2.75h-.84l-.42-1.7-2.33-.2c0 1.48-.2 2.97-.2 4.45l1.68.2.43-.84h.43c0 .86-.22 2.14-.22 3h-.42l-.42-.86-1.7-.2c0 1.26-.2 2.53-.2 3.8 0 .22 0 .43-.43.43 1.06 0 1.9.2 2.96.2l.64-1.7H71l-.2 2.77c-1.9-.2-4.23-.42-6.34-.63zM76.5 83.83v-.42l.85-.63c-.2-3.4-.42-6.8-.63-10.2l-.63-.4v-.44c2.1-.2 4-.2 6.1-.42l.23 2.98h-.85l-.63-1.7-2.33.22c0 1.48.2 2.97.2 4.45h1.7l.43-1.06h.42c0 .84.2 2.1.2 2.96h-.4l-.44-.85h-1.7c0 1.3.23 2.56.23 3.83 0 .22 0 .43-.43.64 1.06 0 1.9 0 2.96-.2l.4-1.7h.86l.2 2.75c-2.3 0-4.43.2-6.75.2zM91.72 81.5c.85-.22 1.27-.85 1.06-1.7l-.2-1.5c-.43-2.32-4.45-.62-5.08-3.6l-.2-1.48c-.44-1.7.83-2.76 2.3-2.97.65-.2 1.5-.2 2.12.42v-.63l1.06-.22c.2 1.07.42 2.13.64 3.2l-1.7.2-.2-.85c-.22-.85-.64-1.27-1.5-1.06-.83.22-1.04.65-1.04 1.5l.2 1.48c.43 2.12 4.45.43 5.08 3.6l.2 1.5c.44 1.9-1.04 2.97-2.74 3.18-1.7.2-3.17-.2-3.6-2.12l-.2-.85 1.9-.44.2 1.06c.44 1.06.86 1.28 1.7 1.28zM97.22 69.4l-.2-.42 2.95-.85.2.42-.4.64 1.25 4.23 2.75-.85-1.27-4.24-.84-.43-.2-.4 2.95-.86.22.43-.43.63 3.16 9.76.85.22.22.42-3.17 1.06-.42-.63.63-.64-1.48-4.47-2.75.85 1.48 4.46.86.2.2.43-3.16 1.07-.2-.43.62-.63-3.17-9.76-.63-.2zM118.78 70.04c.84 1.7.2 3.6-1.7 4.45-1.9.84-3.6.2-4.43-1.5l-2.75-5.5c-.84-1.7-.2-3.62 1.7-4.47 1.9-.85 3.58-.42 4.43 1.5l2.75 5.5zm-4.65 2.12c.63 1.27 1.27 1.7 2.32 1.06 1.06-.42 1.06-1.5.64-2.55l-2.55-5.52c-.42-1.06-1.27-1.7-2.32-1.06-1.06.42-1.27 1.27-.64 2.54l2.53 5.52zM127.44 60.06c1.27 1.9.2 3.18-1.48 4.25l-.84.64c.63.85 1.27 1.9 1.9 2.76h.84l.22.43c-.85.63-1.9 1.27-2.75 1.7l-.2-.43.4-.85c-1.9-2.76-3.58-5.73-5.48-8.5h-.85l-.2-.4 2.95-1.92c1.48-1.06 3.17-1.28 4.44.42l1.04 1.9zm-5.9-.85c1.04 1.5 2.1 3.2 2.94 4.68l.85-.64c1.06-.63 1.06-1.48.42-2.33l-1.06-1.7c-.64-.84-1.27-1.26-2.33-.62l-.84.63z"/><path fill="#C4C4C4" d="M60.87 118l.2-.42c0-1.06 0-2.13 0-3.2l-.2-.2v-.2c.63 0 1.27 0 1.9 0v.84h-.2l-.22-.64h-.85c0 .42 0 1.06 0 1.5h.42l.22-.23h.2c0 .22 0 .64 0 .85h-.2l-.22-.2h-.42c0 .42 0 .84 0 1.26 0 0 0 .22-.2.22.2 0 .62 0 .84 0l.2-.43h.22v.85c-.42 0-1.06 0-1.7 0zM65.3 117.8c.22 0 .43-.22.43-.44v-.63c0-.64-1.48-.43-1.48-1.5v-.4c0-.65.42-.86.84-.86.2 0 .42 0 .63.2v-.2h.42c0 .42 0 .63 0 1.06h-.63v-.2c0-.23-.2-.44-.42-.44-.22 0-.43.2-.43.42v.42c0 .64 1.48.43 1.48 1.5v.4c0 .65-.42.86-1.06.86-.43 0-1.06-.2-1.06-.85v-.2h.63v.2c.2.43.42.64.64.64zM68.9 114.6c0 1.07 0 2.13 0 3.2l.2.2v.2c-.4 0-.83 0-1.05 0v-.2l.22-.2c0-1.07 0-2.13 0-3.2h-.43l-.2.64v-1.06h2.1v1.06h-.2l-.22-.63h-.42zM72.28 114.18c.63 0 1.06.2 1.06 1.06v1.9c0 .65-.43 1.07-1.06 1.07H71v-.2l.22-.2v-3.2l-.2-.2v-.22h1.26zm-.42.42v2.98s0 .2-.2.2h.4c.43 0 .64-.2.64-.63v-1.9c0-.43-.2-.64-.63-.64h-.2zM77.35 117.58l.2-.64h.23v.85c-.64 0-1.27 0-1.9 0v-.22c0-1.28 1.26-1.9 1.26-2.98 0-.2-.2-.42-.42-.42-.42 0-.42.42-.42.64h-.22c0-.64.22-1.06.85-1.06s.85.2.85.84c0 1.07-1.27 1.5-1.27 2.76h.85v.22zM80.3 114.18c.65 0 1.07.42 1.07 1.06v1.9c0 .65-.42 1.07-1.06 1.07-.62 0-1.04-.4-1.04-1.05v-1.9c0-.64.42-1.07 1.05-1.07zm-.4 2.97c0 .2 0 .64.4.64.43 0 .43-.22.43-.65v-1.9c0-.43 0-.64-.42-.64-.4 0-.4.43-.4.64v1.9zM84.12 114.18c.63 0 1.05.42 1.05 1.06v1.9c0 .65-.42 1.07-1.05 1.07-.64 0-1.06-.4-1.06-1.05v-1.9c0-.64.42-1.07 1.06-1.07zm-.64 2.97c0 .2 0 .64.42.64.43 0 .43-.22.43-.65v-1.9c0-.43 0-.64-.42-.64s-.42.43-.42.64v1.9zM87.92 117.58l.2-.64h.22v.85c-.63 0-1.26 0-1.9 0v-.22c0-1.28 1.27-1.9 1.27-2.98 0-.2-.2-.42-.4-.42-.44 0-.44.42-.44.64h-.2c0-.64.2-1.06.84-1.06.63 0 .84.2.84.84 0 1.07-1.26 1.5-1.26 2.76h.84v.22z"/></g><defs><clipPath id="a"><path fill="#fff" d="M0 0h149v118H0z"/></clipPath></defs></svg>