<svg xmlns="http://www.w3.org/2000/svg" width="141" height="137" fill="none"><g clip-path="url(#a)"><path fill="#C4C4C4" fill-rule="evenodd" d="M70.5 29.08c-10.75 0-20.55 4.33-27.72 11.54C35.6 47.82 31.3 57.68 31.3 68.5s4.3 20.67 11.48 27.88c7.17 7.2 16.97 11.54 27.72 11.54s20.55-4.33 27.72-11.54c7.17-7.2 11.47-17.06 11.47-27.88s-4.3-20.67-11.48-27.88c-7.17-6.97-16.97-11.54-27.72-11.54zM1.67 54.8h30.1c2.17-6 5.5-11.3 9.8-15.62 7.42-7.45 17.7-12.26 29.17-12.26 11.47 0 21.75 4.57 29.16 12.26 4.3 4.32 7.64 9.6 9.8 15.62h30.1c.48 0 .96.24 1.2.72s.24.96.24 1.44l-4.54 11.06c-.24.48-.24.72 0 1.2l4.54 11.06c.24.48.24.96-.24 1.44-.24.48-.72.72-1.2.72h-30.35c-2.15 6-5.5 11.3-9.8 15.62-7.4 7.45-17.68 12.26-29.15 12.26-11.47 0-21.75-4.56-29.16-12.26-4.3-4.32-7.64-9.6-9.8-15.62H1.68c-.48 0-.95-.24-1.2-.72C0 81 0 80.52.25 80.04l4.54-11.06c.24-.48.24-.72 0-1.2L.24 56.72c-.24-.24-.24-.72 0-1.2s.72-.72 1.43-.72z" clip-rule="evenodd"/><path fill="#C4C4C4" d="M70.5 31.73c-10.04 0-19.12 4.08-25.8 10.8C38 49.28 33.93 58.42 33.93 68.5c0 10.1 4.06 19.23 10.75 25.96 6.68 6.73 15.76 10.8 25.8 10.8 10.04 0 19.12-4.07 25.8-10.8 6.7-6.73 10.76-15.87 10.76-25.96 0-10.1-4.06-19.23-10.75-25.96-6.44-6.73-15.76-10.8-25.8-10.8zm-26.53 10.1c6.7-6.74 16.25-11.07 26.53-11.07 10.28 0 19.84 4.33 26.53 11.06 6.7 6.73 11 16.34 11 26.68 0 10.33-4.3 19.95-11 26.68s-16.25 11.05-26.53 11.05c-10.28 0-19.84-4.32-26.53-11.05-6.7-6.73-11-16.35-11-26.68 0-10.34 4.3-19.95 11-26.68zM23.18 36.3h.48s0 0 .24 0v-.25s0 0-.24 0l.24-.48c.24 0 .24.24.24.24l.24.25v.24s0 .23-.24.47c0 .24-.24.24-.24.24s-.24.25-.48.25-.24 0-.48 0-.24 0-.48-.24c-.23 0-.23 0-.47-.23-.25 0-.25 0-.25 0s-.24 0-.24.24l-.23.25-.24.24 1.2.96s0 0 0-.24v-.24l.95.48s0 .24-.24.24c0 0 0 .24-.24.24 0 0 0 .24-.24.24 0 0 0 .24-.23.24 0 0 0 .24-.24.24 0 0 0 .24-.25.24 0 0 0 .24-.24.24 0 0 0 .24-.23.24l.24-.24v-.24s0 0 0-.24c0 0 0 0-.23 0l-2.15-1.44s0 0-.24 0c0 0 0 0-.24 0 0 0 0 0-.24.24l-.48-.24 1.44-2.17c0-.24.24-.24.24-.48s.24-.24.24-.48l.23-.25s.24-.24.48-.24.24 0 .48 0 .24 0 .48.25l.25.24.24.23s0 .24 0 .48c0 .25 0 .25 0 .5h.7s.24 0 .48 0zm-2.4 1.2l.25-.5c0-.23.24-.23.24-.47v-.49l-.24-.24s-.24 0-.24-.23h-.25s-.24 0-.24.24l-.23.25-.23.48.95.96zM24.38 29.08l.95.72-.48.48s-.23 0-.23-.24c0 0 0 0-.24 0 0 0 0 0-.24 0 0 0 0 0-.24.24l-.48.97.96.72.47-.48s0 0 0-.25l.24-.24.95.73-.24.24h-.23l-.48.48.95.96.72-.95s0-.24.24-.24c0 0 0 0 0-.23 0 0 0 0 0-.24 0 0 0-.24-.23-.24l.47-.5.96.97-2.63 3.12-.48-.5.23-.23s0 0 0-.24l-1.9-1.68s0 0-.25 0c0 0 0 0-.24 0 0 0 0 0-.24 0 0 0 0 0-.24 0l-.23.24-.48-.5 2.63-3.12zM25.8 27.4c.25-.24.25-.24.5-.48l.23-.24.24-.24s0-.24.24-.24c0 0 0 0 .24-.24l.96-.96.24-.24.24-.24.24-.24.24-.24 1.2 1.2-.5.48-.23-.24s0 0-.24-.24 0 0-.24 0c0 0 0 0-.24 0 0 0-.24 0-.24.24l-.24.24 2.15 2.16s0 0 .23 0l.24-.24.48.48s0 .24-.24.24c0 0 0 0-.23.24l-.24.24-.24.24s0 .24-.25.24l-.24.24-.23.24-.24.24-.47-.48.23-.24s0 0 0-.24c0 0 0 0 0-.24l-2.16-1.92-.47.48s0 .24-.24.24c0 0 0 0 0 .24 0 0 0 0 .24 0l-.48.48-.5-.96zM35.6 22.83l.25.24h.24s0 0 .23 0c0 0 0 0 .23 0 0 0 0 0 0-.24v-.24l.24-.25c0 .24.24.24.24.48s0 .24 0 .24 0 .24-.24.24l-.24.25c-.23 0-.23.24-.47.24-.25 0-.25 0-.5 0-.23 0-.23 0-.47-.25-.24 0-.24-.24-.48-.24-.24-.23-.24-.23-.48-.23 0 0-.23 0-.23-.24h-.24s-.24 0-.24.24v.72l.7.96s0 0 .25 0h.25l.48.48s-.24 0-.24.24c0 0-.25 0-.25.24 0 0-.24 0-.24.24l-.23.24-.23.24s-.24 0-.24.24c0 0-.24 0-.24.24 0 0 0 0-.24.24l-.48-.48.24-.24s0 0 0-.24c0 0 0 0 0-.24l-1.67-1.93s0 0 0-.24c0 0 0 0-.23 0 0 0 0 0-.24.23l-.48-.48 1.67-1.44c.24 0 .24-.23.48-.23s.24-.24.48-.24.24-.24.48-.24.24 0 .48 0c.23 0 .23 0 .47.23.25 0 .25.24.5.24l.23.24v.25c0 .24 0 .24 0 .48s0 .24-.24.48h.47s.24 0 .24.25c-.23-.96 0-.72 0-.72zM33 23.3l.48-.23c.24 0 .24-.24.24-.24l.24-.24v-.25s0-.24-.24-.24c0-.23-.24-.47-.24-.47h-.48s-.24.24-.48.24l-.24.24.72 1.2zM37.76 17.07c.48 0 .72-.25.96-.25.23 0 .7 0 .95 0 .24 0 .48.25.72.5.23.23.47.47.7.7.24.25.24.5.48.97 0 .23 0 .7 0 .95 0 .24-.24.48-.47.72-.23.24-.47.48-.7.72-.25 0-.73.23-.97.23s-.7 0-.95 0c-.24 0-.48-.24-.72-.48s-.48-.48-.72-.72-.24-.48-.48-.96c0-.24 0-.48 0-.96 0-.23.24-.47.48-.7.24-.25.48-.5.72-.73zm.48.72c-.24 0-.24.23-.48.47 0 .24 0 .24 0 .48s0 .48 0 .48c0 .24.24.48.24.72.24.24.24.48.48.48.24.24.24.24.47.24.24 0 .24 0 .48 0s.24 0 .48-.24c.25 0 .25-.24.5-.48 0-.24 0-.24 0-.48s0-.48 0-.48c0-.25-.25-.5-.25-.73-.24-.48-.72-.72-.96-.96-.25.25-.72.25-.96.5zM47.8 12.02c.47.48.7.72 1.2 1.2.23.24.23.24.47.48.24.24.24.24.48.48 0 .24.24.24.24.24l.23.24c0 .24.23.24.23.24l.24.24s0 0 .24 0h.24l.24.48c-.24 0-.24 0-.48.24-.24 0-.24 0-.48.24-.23 0-.47.24-.47.24-.25 0-.5.24-.5.24l-.23-.48s.24 0 .24-.24l-.47-.48-1.43.72s0 0 0 .24v.72s0 0 .24 0l.23.5c-.23 0-.23 0-.47.23-.24 0-.24 0-.48.23h-.96l-.24-.48h.24s0 0 0-.24v-.24s0-.24 0-.48 0-.24 0-.48 0-.24 0-.48 0-.24 0-.48 0-.24 0-.48 0-.24 0-.48v-.96l1.44-1.2zm-.48 3.12l1.2-.72-1.2-1.44v2.16zM51.14 10.82c.24 0 .24 0 .48 0h1.43l.24.72h-.25s0 0 0 .24c0 0 0 0 0 .24l.48 1.68c0 .24 0 .24.24.48 0 .24.24.24.24.24s.25 0 .25.24c.24 0 .24 0 .48 0s.24 0 .48-.24l.24-.24s0-.24 0-.48 0-.24 0-.48l-.47-1.92s0 0 0-.24c0 0 0 0-.24 0 0 0 0 0-.24 0h-.25l-.24-.72s0 0 .25 0h.71s0 0 .23 0h.72l.24.72h-.48s0 0 0 .24c0 0 0 0 0 .24 0 0 0 0 0 .24l.48 1.68c0 .24.24.48.24.72s0 .48-.24.72c0 .24-.24.24-.48.48-.48-.96-.7-.72-.95-.72-.24 0-.72.24-.96.24s-.48 0-.72-.24c-.23 0-.23-.24-.47-.48 0-.24 0-.48-.24-.72l-.48-1.92s0 0-.24 0h-.24l-.24-.72zM57.6 8.9c.23 0 .47 0 .7 0h.96l1.2-.25h.95l.72 1.2h-.48v-.72s0 0-.24 0h-.72l.48 2.9s0 0 .24 0h.24v.7h-1.91v-.7h.47s0 0 0-.25c0 0 0 0 0-.24l-.47-2.9h-.72s0 0-.24 0c0 0 0 0 0 .25 0 0 0 0 0 .23 0 0 0 0 0 .24 0 0 0 0 0 .24h-.5l-.7-.7zM63.8 7.93c.25 0 .25 0 0 0 .25 0 .5 0 .5 0h.46s0 0 .24 0h.72v.72h-.48s0 0 0 .24v.95l2.4-.24v-.95s0 0 0-.24c0 0 0 0-.25 0h-.25v-.7c.24 0 .48 0 .72 0s.48 0 .48 0 0 0 .24 0h.7v.7h-.23s0 0 0 .25l.23 2.65v.24h.24v.72h-.95c-.25 0-.5 0-.5 0-.23 0-.23 0-.47 0v-.72h.48s0 0 0-.24v-.96l-1.9.24v1.44s0 0 .24 0h.24v.72h-1.92v-.72H65s0 0 0-.24c0 0 0 0 0-.24l-.47-2.65s0 0 0-.25h-.24l-.5-.72zM75.28 7.7v1.2h-.72V8.4s0 0 0-.23c0 0 0 0-.24 0h-1.44v1.2h.73s0 0 .25 0c0 0 0 0 0-.24h.23v1.2h-.23v-.24s0 0-.24 0h-.7v1.44h1.42s0 0 .24 0c0 0 0 0 0-.24v-.24h.72v1.44l-4.06-.24v-.72h.24s0 0 .23 0c0 0 0 0 0-.24 0 0 0 0 0-.24V8.4s0 0 0-.23c0 0 0 0 0-.24 0 0 0 0-.24 0h-.24V7.2l4.06.5zM78.4 8.17c.23 0 .23 0 0 0 .23 0 .23 0 .46 0h.24s0 0 .24 0l1.44 3.85.47-2.4s0 0 0-.25c0 0 0 0-.23 0h-.24v-.72c.24 0 .24 0 .47 0 .24 0 .24 0 .48 0 0 0 0 0 .24 0 0 0 0 0 .24 0 0 0 0 0 .25 0 .24 0 .24 0 .48 0v.72h-.49s0 0 0 .24c0 0 0 0 0 .25 0 0 0 .24 0 .48s0 .5 0 .5c0 .23 0 .47 0 .7l-1.2 1.7-1.2-.25-1.42-3.85-.48 2.4v.25s0 0 .24 0h.23v.72c-.24 0-.24 0-.48 0s-.24 0-.48 0h-.97v-.72h.49s0 0 0-.24l.47-2.65v-.25s0 0-.24 0h-.24v-.72l1.2.24zM84.6 9.13c.24 0 .48.24.72.24h.7c0 .24 0 .24 0 .24l1.2.25h.96l-.47 1.45-.47-.24.24-.5v-.23s0 0 0-.24c0 0 0 0-.24 0h-.74l-.47 3.36s0 0 .24 0h.24l-.23.72h-.24c0 .24 0 .24 0 .24H84.6l.24-.72h.48s0 0 .24 0c0 0 0 0 0-.24l.7-2.9-.47-.23h-.24s0 0-.24 0c0 0 0 0 0 .24 0 0 0 0 0 .25 0 0 0 0 0 .24 0 0 0 0 0 .24l-.48-.24-.24-1.93zM90.57 11.06h.96c.24 0 .24 0 .24.24h.73l-.25.48h-.47s0 0-.24 0c0 0 0 0 0 .24l-.72 3.12s0 0 0 .24c0 0 0 0 .25 0h.24l-.25.48h-.94c-.24 0-.48-.24-.48-.24-.24 0-.24 0-.48-.24l.24-.48h.48s0 0 .24 0c0 0 0 0 0-.24l.95-2.4s0 0 0-.24c0 0 0 0 0-.24 0 0 0 0-.24 0h-.23v-.72zM95.35 17.3c.24 0 .24.25.48.25s.24 0 .48 0c.25 0 .25 0 .25-.24 0 0 .24-.24.24-.48l.47.5-.48.95c-.25 0-.73 0-.97 0s-.7-.24-.95-.24c-.48-.24-.72-.48-.96-.72s-.48-.48-.48-.72 0-.48 0-.96c0-.24.24-.72.24-.96.24-.24.24-.48.48-.72s.48-.48.72-.48.47-.24.95-.24c.24 0 .72 0 .96.24 0 0 .23 0 .23.24l.24.24.23.24s0 .24.24.24l.24-.24.72.24-.72 1.44-.7-.24c0-.24 0-.48 0-.72s-.25-.48-.5-.48c-.23 0-.23-.24-.47-.24-.23 0-.23 0-.47 0-.24.24-.48.24-.48.48-.23.24-.23.48-.47.72 0 .24-.24.48-.24.72s0 .48 0 .48c0 .24 0 .24.24.48 0 0 .24.25.47.25zM105.63 20.43l-.48-.24c0-.25 0-.5 0-.5 0-.23-.24-.23-.48-.47 0 0-.23 0-.23-.24h-.48s-.24 0-.24.23v.24s0 .24.24.48c0 .24.24.24.24.48s.23.24.23.48c0 .25.24.25.24.5 0 .23 0 .23 0 .47 0 .24 0 .24 0 .48s0 .24-.23.48c0 .24-.24.24-.48.48-.24 0-.24.25-.48.25s-.48 0-.48 0c-.24 0-.48-.24-.72-.24l-.23-.23-.24-.24-.23-.24v-.97l-.72-.48.72-1.2.48.48s0 0 0 .24v.49s0 .24.23.24l.24.23s.24 0 .24.24h.48s.24 0 .24-.24v-.24c0-.25 0-.25-.24-.5-.24-.23-.24-.23-.24-.47 0-.24-.24-.24-.24-.48s0-.48 0-.72 0-.48.24-.72c0-.23.24-.23.48-.47.24 0 .24-.24.48-.24s.48 0 .48 0c.23 0 .47.23.47.23.25 0 .25.24.5.48.23.25.23.25.23.5 0 0 0 0 .24 0 0 0 0 0 .24 0 .25 0 0 0 .25 0l-.72 1.43zM108.26 20.9c.24.25.24.25.48.5 0 0 .24 0 .24.23l.23.24c.02 0 .25 0 .25.24 0 0 0 0 .24.25l.95.96.24.25.23.24.24.24.23.24-.95 1.2-.72-.96.24-.48s0 0 0-.25c0 0 0 0 0-.25 0 0 0 0 0-.24l-.24-.23-1.9 2.4s0 0 .23.25l.24.24-.72.48s-.24 0-.24-.24c0 0-.24 0-.24-.24 0 0-.24 0-.24-.24l-.23-.24s-.24 0-.24-.24l-.25-.24-.24-.24-.23-.24.48-.48.24.24h.23s0 0 .23 0l1.92-2.17-.48-.47s-.24 0-.24-.24c0 0 0 0-.24 0 0 0 0 0 0 .23 0 0 0 0 0 .24l-.48-.48.72-.5zM112.8 25c.24 0 .24 0 0 0 .24.24.24.24.24.24l.24.24.24.24.24.24.23.24-.48.48-.24-.24s0 0-.24 0c0 0 0 0 0 .24v.96s0 0 0 .24l1.2-.24h.23s0 0-.24-.24l.48-.48.25.24.24.24.23.24-.48.48s0 0-.24-.24c0 0 0 0-.23 0H114c-.24 0-.24 0-.48 0s-.24 0-.48 0-.24 0-.48 0-.24 0-.24 0h-.24l-.7.72s0 0 0 .24v.24l-.5.48s0-.24-.23-.24c0 0 0-.24-.24-.24l-.23-.24-.24-.24s0 0-.24-.24l-.25-.24-.23-.24s0 0-.24-.24l.47-.48v.24s0 0 .24.24c0 0 0 0 .23 0l.72-.72v-.48c0-.24 0-.24 0-.48s0-.24 0-.48 0-.24 0-.24v-.48s0 0 0-.24c0 0 0 0 0-.24 0 0 0 0-.24-.24 2.16 1.2 2.16 1.2 2.4.96zM117.34 29.8c0 .24.24.24.24.24s0 .24.24.24c0 0 0 .24.24.24l.24.24.24.24.23.25.24.24-.46.47-.24-.24s0 0-.24-.24c0 0 0 0-.24 0 0 0 0 0-.24 0l-1.2.95c-.23.24-.7.48-1.2.96l.73.97s0 0 .25.24h.23s.24 0 .24-.23l.24-.24.48.48-1.2.97-2.38-3.12.47-.48v.24s0 0 .24.25c0 0 0 0 .24 0 0 0 0 0 .25 0 0 0 0 0 .24 0l1.9-1.45s0 0 0-.24c0 0 0 0 0-.24v-.24l.24-.48zM122.84 37.98l-.96.48-.48-.48h.24s.24 0 .24-.25c0 0 0 0 0-.24 0 0 0 0 0-.25 0 0 0 0 0-.24l-.72-.95-1.2.72.5.48s0 0 .23 0l.22.24-.95.96-.24-.24s0 0 .24-.24l-.48-.73-1.2.73.7.96s0 .24.25.24c0 0 0 0 .24 0 0 0 0 0 .23 0 0 0 .24 0 .24-.24l.48.48-1.2.72-2.15-3.37.48-.24.24.24s0 0 .24 0c0 0 0 0 .24 0l2.15-1.44s0 0 .24 0c0 0 0 0 0-.24l-.25-.25.47-.24 1.92 3.38z"/><path fill="#C4C4C4" fill-rule="evenodd" d="M123.8 44.46c-.48.25-.96 0-1.2-.48s0-.96.48-1.2c.47-.24.95 0 1.2.48.23.48 0 1.2-.5 1.2zM18.15 42.78c.48.24.72.72.48 1.2s-.72.73-1.2.48c-.47 0-.7-.72-.47-1.2.24-.48.7-.72 1.2-.48zM9.56 37.74l.72.24c5.5-11.3 14.34-20.67 24.85-27.16C45.65 4.32 58.07.72 70.5.72c12.43 0 24.85 3.6 35.37 10.1 10.52 6.5 19.36 16.1 24.85 27.4l.72-.24c-5.73-11.54-14.34-21.16-25.1-27.9C95.6 3.62 83.18 0 70.5 0 58.07 0 45.4 3.6 34.65 10.1 24.15 16.8 15.3 26.43 9.55 37.73zm17.68 8.9c4.07-7.94 10.28-14.9 17.93-19.48 7.65-4.8 16.5-7.2 25.33-7.2 8.84 0 17.68 2.4 25.33 7.2 7.65 4.8 13.86 11.54 17.93 19.47l.7-.24c-4.05-8.18-10.5-15.15-18.15-19.96-7.64-4.8-16.72-7.2-25.8-7.2-9.08 0-17.92 2.4-25.8 7.2-7.66 4.8-14.1 11.78-18.17 19.95l.7.23z" clip-rule="evenodd"/><path fill="#E2E2E2" d="M23.66 99.27c.24.24.24.48.48.72 0 .23 0 .47 0 .7 0 .25 0 .5-.24.5 0 .23-.24.23-.48.47-.24 0-.24.24-.48.24s-.24 0-.48 0c-.23 0-.47-.23-.47-.23-.25-.48-.25-.72-.5-.96l-.47-.47-.72.48s0 0-.23 0c0 0 0 0 0 .25v.24l-.47.23s0-.24-.24-.24c0 0 0-.25-.24-.25 0 0 0-.24-.24-.24 0 0 0-.23-.24-.23l-.24-.24s0-.24-.24-.24c0 0 0-.25-.24-.25 0 0 0-.24-.24-.24h1.44v.25s0 .24.24.24c0 0 0 0 .24 0 0 0 0 0 .24 0L22 98.53s0 0 .23 0c0 0 0 0 0-.24 0 0 0 0 0-.24v-.24l.47-.24.96 1.7zm-2.15.48l.25.48c.24.24.24.48.48.48.23 0 .47 0 .47 0l.24-.23V100s0-.25-.24-.5l-.24-.48-.95.73zM25.57 107.44l-.24.24s0 .24-.24.24c0 0 0 0 0 .24 0 0 0 0 0 .24 0 0 0 0 .23 0h.24l.24.24c-.23 0-.23.24-.47.24h-.24s-.25 0-.25-.24l-.23-.24c0-.24-.24-.24-.24-.48s0-.24 0-.48 0-.24.24-.48c0-.24.23-.24.23-.48.24-.25.24-.25.24-.48 0 0 0-.25.23-.25v-.24s0-.23-.24-.23l-.25-.24-.95.97s0 0 0 .23l-.48.5s0-.26-.24-.26c0 0 0-.23-.24-.23 0 0 0-.24-.24-.24l-.24-.25-.23-.24s0-.23-.24-.23c0 0 0-.24-.25-.24 0 0 0 0-.24-.24l.5-.5s0 .25.23.25c0 0 0 0 .23 0 0 0 0 0 .24 0l1.92-1.68s0 0 .23 0c0 0 0 0 0-.24 0 0 0 0-.23-.24l.47-.5 1.43 1.7c0 .23.24.23.24.47 0 .24.24.24.24.48s.24.24.24.48 0 .24 0 .48c0 .25 0 .25-.23.5 0 .23-.23.23-.23.47l-.24.25h-.24c-.25 0-.25 0-.5 0-.23 0-.23 0-.47-.25v.49s0 .24-.24.24c.7 0 .7 0 .47.24zm-.24-2.65l.24.47c0 .24.24.24.24.24l.25.25h.24s.23 0 .23-.24l.24-.23v-.48s-.24-.25-.24-.5l-.24-.47-.97.96zM32.74 109.84l-.96.96-.47-.48.25-.24s0 0 0-.24c0 0 0 0 0-.24 0 0 0 0-.24-.24l-.95-.72-.96.96.47.48s0 0 .24 0l.25.24-.96.96-.24-.24s0 0 0-.24l-.48-.48-.96.96.96.96s0 0 .24.24c0 0 0 0 .24 0 0 0 0 0 .23 0 0 0 .23 0 .23-.24l.48.48-.94.97-2.87-2.9.47-.48.24.24s0 0 .24 0l1.68-1.92s0 0 0-.24c0 0 0 0 0-.24l-.24-.24.48-.48 3.58 2.4zM33.94 111.28s.23 0 0 0c.23.24.23.24.23.24l.24.24s.25 0 .25.24c0 0 0 0 .24.24 0 0 .23 0 .23.24 0 0 .24 0 .24.24 0 0 .24 0 .24.25l-.47 1.68c0 .24-.24.48-.24.48 0 .24-.25.48-.25.48 0 .25 0 .25-.24.5l.25-.25c.24 0 .24-.24.48-.24.24-.23.48-.23.48-.47.25-.24.5-.24.5-.48.23-.24.23-.24.46-.24.24 0 .24-.23.24-.23s.24 0 .24.24l.24.25.24.24s.24 0 .24.23c0 0 0 0 .24.24 0 0 .24 0 .24.24 0 0 .24 0 .24.25 0 0 0 0 .24 0l-.48.48H38s0 0-.24 0l-.96 1.2c-.24.24-.47.72-.95 1.2 0 0 0 0 0 .24 0 0 0 0 .24 0h.23l-.48.48s-.24 0-.24-.24c0 0-.23 0-.23-.23 0 0-.24 0-.24-.24l-.24-.24s-.25 0-.25-.25c0 0-.24 0-.24-.24 0 0 0 0-.23-.23 0 0 0 0-.23-.24l.47-.48h.25s0 0 .24 0c0 0 0 0 .23 0 0 0 0 0 .24-.24l1.9-2.4-.47.25-3.1 1.92-.48-.48v-.25s0-.24.24-.48c0-.24 0-.24.24-.48 0-.25.24-.5.24-.5 0-.23.23-.47.23-.47 0-.24 0-.24.24-.48 0-.25 0-.25.25-.48v-.49l-1.9 2.4s0 0 0 .25c0 0 0 0 .23 0h.24l-.48.48s0 0-.24-.23c0 0 0 0-.24-.24 0 0 0 0-.24-.24 0 0-.24 0-.24-.25 0 0-.23 0-.23-.24 0 0-.24 0-.24-.23 0 0 0 0-.23-.24 0 0 0 0-.24-.24l.48-.5h.48s0 0 .24 0c0 0 0 0 0-.23l1.68-2.17s0 0 0-.24h-.24l.48.72zM40.4 115.85s.23 0 .23.24c0 0 .24 0 .24.23h.24s0 0 .24 0l.24.24s.24 0 .24.24c0 0 .24 0 .24.25 0 0 .24 0 .24.24l-.24.47h-.48s0 0-.24 0l-1.43 2.4s0 0 0 .25c0 0 0 0 .25 0h.24l-.25.48s-.24 0-.24-.24c0 0-.23 0-.23-.24 0 0-.24 0-.24-.24 0 0-.24 0-.24-.25-.25 0-.25-.24-.48-.24-.24 0-.24-.25-.48-.25l.24-.48h.24s0 0 .23 0c0 0 0 0 0-.24l1.44-2.16s0 0 0-.24c0 0 0 0 0-.24 0 0 0 0 0-.25 0 0 0 0-.25-.24l.24.25zM43.73 118c.24 0 .24.25.48.25 0 0 .25 0 .25.24h.24s.23 0 .23.23h.24s.24 0 .24.24c0 0 .25 0 .25.24l-.24.5h-.23s0 0-.24 0c0 0 0 0 0 .23l-.72 1.7c0 .23-.23.23-.23.47 0 .24 0 .24 0 .48 0 0 0 .24.24.24.25 0 .25.24.5.24.23 0 .23 0 .47 0h.24l.25-.24s.23-.24.23-.48l.96-1.68s0 0 0-.24c0 0 0 0 0-.25 0 0 0 0 0-.23 0 0 0 0-.24 0l.24-.5s0 0 .24 0h.24s.24 0 .24.25h.24s0 0 .24 0c0 0 0 0 .23 0h.49l-.24.47h-.46s0 0-.24 0l-.72 1.7c-.24.23-.24.47-.48.7-.24.25-.24.25-.48.5-.24 0-.47 0-.7 0-.25 0-.5-.25-.73-.25-.25-.24-.5-.24-.73-.48-.24-.24-.24-.48-.48-.48 0-.24 0-.48 0-.72s.23-.48.23-.72l.96-1.7s0 0-.25 0h-.24l-.47-.7zM49.23 120.66s.24 0 0 0c.24 0 .24 0 .48.24h1.43v1.68c0 .24 0 .48 0 .72s0 .48 0 .48c0 .24 0 .24 0 .48l.24-.24c0-.24.24-.24.48-.48s.24-.48.48-.48c.24-.24.24-.48.48-.48.23-.24.23-.24.47-.48 0-.24.23-.24.23-.24h1.68s0 0 .24 0l-.47 1.44h-.48l-.5 1.44c-.23.48-.23.72-.47 1.2 0 0 0 0 0 .24 0 0 0 0 .24 0H54l-.23.48h-1.92l.24-.48h.48s0 0 .24 0c0 0 0 0 0-.24 0 0 0 0 0-.24l.95-2.88-.48.48-2.4 2.88-.7-.24v-.24c0-.24 0-.24 0-.48s0-.24 0-.48 0-.48 0-.48c0-.24 0-.48 0-.48 0-.24 0-.48 0-.48 0-.24 0-.24 0-.48s0-.24 0-.24v-.24l-.97 2.88s0 0 0 .24c0 0 0 0 .24 0h.24l-.23.48h-1.91l.24-.48h.47s0 0 0-.24l.96-2.4s0 0 0-.24c0 0 0 0-.24 0h-.25l.48-1.92zM62.14 124.02c.47 0 .7.24.95.24.23 0 .47.24.47.24.24.24.24.24.24.48s0 .24 0 .48v.24l-.23.24-.24.25c0-.02-.24-.02-.48-.02.24 0 .48.24.72.48.24.25.24.5.24.73 0 .23 0 .23-.23.47 0 .24-.24.24-.48.24-.25 0-.5.25-.73.25-.23 0-.47 0-.95 0l-2.4-.48v-.72h.49s0 0 0-.24l.48-2.64s0 0 0-.24c0 0 0 0 0-.24 0 0 0 0-.23 0v-.72l2.4.96zm-1.2 3.85h.48c.24 0 .48 0 .72 0 .23 0 .23-.24.23-.48 0-.25 0-.25 0-.25s0-.24-.23-.24l-.24-.23c-.24 0-.24 0-.48-.25h-.48v1.45zm.24-1.93h.48c.48 0 .95 0 .95-.48v-.24s0-.24-.23-.24l-.23-.24s-.24 0-.48 0h-.48v1.2zM69.78 128.1v.49s0 0 0 .23c0 .24 0 0 .24 0h.24v-.24h.48c0 .23 0 .23 0 .47 0 0 0 .24-.24.24l-.24.25s-.24 0-.48 0-.24 0-.47 0c-.23 0-.23-.24-.23-.24s-.24-.23-.24-.47c0-.24 0-.24-.24-.48 0-.24 0-.24 0-.48s0-.24-.25-.24h-.71v1.2s0 0 0 .24c0 0 0 0 .24 0h.24v.72H66.2v-.73h.24s0 0 .24 0c0 0 0 0 0-.24v-2.65s0 0 0-.24c0 0 0 0-.24 0h-.24v-.72h2.15c.24 0 .24 0 .48 0s.24 0 .48 0 .24 0 .48.24c.24 0 .24.24.24.24l.24.24c0 .24 0 .24 0 .48 0 .25 0 .25 0 .25s0 .23-.24.23l-.24.24s-.24 0-.47.25c0 0 .24 0 .24.23 0 0 0 0 .24.24 0 0 0 .24.24.24-.24-.23-.24-.23-.24 0zm-2.15-1.43h.48c.25 0 .25 0 .5 0h.23s.24 0 .24-.25v-.24c0-.24 0-.24 0-.24s0-.24-.24-.24c0 0-.24 0-.24-.24-.25 0-.25 0-.5 0h-.47v1.2zM75.28 124.5c.24.48.48.96.72 1.44 0 .24.24.48.24.48 0 .25.23.25.23.48 0 .25.24.25.24.5v.23c0 .24.25.24.25.48 0 0 0 .25.24.25 0 0 0 0 .23 0h.24v.72c-.24 0-.24 0-.48 0-.25 0-.25 0-.5 0-.23 0-.46 0-.46 0-.24 0-.48 0-.72 0v-.48h.24s0 0 0-.25l-.24-.72h-1.67s0 0 0 .24v.73s0 0 .23 0v.47c-.23 0-.23 0-.47 0-.23 0-.23 0-.47 0h-.96v-.72h.24s0 0 .25 0c0 0 0 0 0-.24v-.23s0-.24 0-.48c0-.25 0-.25.24-.5 0-.23 0-.23.23-.48 0-.24 0-.24.24-.48 0-.24 0-.24.24-.48 0-.24 0-.24 0-.48v-.96l1.68.48zm-1.2 2.65h1.2l-.72-1.93-.48 1.93zM79.34 124.02s.24 0 0 0c.24 0 .24 0 0 0 .24 0 .24 0 .48 0h.24s0 0 .24 0l2.63 2.9-.48-2.42s0 0 0-.24c0 0 0 0-.24 0h-.23v-.72c.24 0 .24 0 .48 0s.24 0 .48 0c0 0 0 0 .24 0 0 0 0 0 .24 0 0 0 0 0 .24 0s.24 0 .48 0v.72h-.48s0 0 0 .24c0 0 0 0 0 .24 0 0 0 .24 0 .48s0 .48 0 .48c0 .24 0 .48.24.72l.24 1.7-1.2.23-2.62-3.13.48 2.4v.25s0 0 .24 0h.23v.72c-.23 0-.23 0-.47 0-.24 0-.24 0-.48 0h-.96v-.73h.48s0 0 0-.24c0 0 0 0 0-.24l-.48-2.66v-.24s0 0-.24 0h-.24v-.72l.48.24zM87 122.34c.95-.24 1.66-.24 2.38-.24.48.24.96.72 1.2 1.44.23.48.23.72.23 1.2 0 .24-.23.72-.23.96-.23.24-.47.48-.7.72-.25.25-.73.25-1.2.5l-2.16.47-.23-.5h.49s0 0 0-.23c0 0 0 0 0-.25 0 0 0 0 0-.23v-.26s0-.24-.24-.48c0-.24 0-.24-.23-.48l-.47-1.2s0 0 0-.24c0 0 0 0-.24 0h-.24l-.24-.48 1.9-.72zm.7 3.84l.48-.24c.24 0 .48-.24.72-.24s.24-.24.48-.48c0-.24 0-.48 0-.48 0-.24 0-.48-.24-.72-.24-.48-.48-.96-.72-.96-.24-.24-.7-.24-1.2 0l-.47.24.96 2.9zM96.07 118.73c.96-.48 1.67-.72 2.15-.48.72 0 1.2.48 1.44 1.2.23.48.23.72.23.97 0 .24 0 .72-.24.96s-.24.48-.72.72c-.24.24-.72.48-.96.72l-1.9.96-.25-.48h.24s0 0 .24 0c0 0 0 0 0-.24 0 0 0 0 0-.24 0 0 0-.24-.23-.24 0 0-.24-.24-.24-.48s-.24-.24-.24-.48l-.48-1.45s0 0-.24 0h-.24l-.24-.48 1.67-.97zm1.44 3.6l.48-.23c.24 0 .48-.24.48-.48.24-.24.24-.24.24-.48s0-.48 0-.48c0-.24-.24-.48-.24-.72-.24-.5-.48-.73-.95-.97-.23 0-.7 0-1.2.24l-.47.25 1.68 2.9zM103.48 113.93l.72.96-.48.47-.24-.24s0 0-.24 0c0 0 0 0-.24 0 0 0 0 0-.24 0l-.95.72.72.96.48-.47s0 0 0-.24l.24-.25.72.96-.24.25s0 0-.24-.24l-.48.5.72 1.2.95-.73s.24 0 .24-.24c0 0 0 0 0-.24 0 0 0 0 0-.25 0 0 0-.24-.23-.24l.48-.47.72 1.2-3.1 2.64-.25-.48.24-.25s0 0 0-.24c0 0 0 0 0-.23l-1.43-2.16s0 0 0-.23c0 0 0 0-.24 0l-.25.24-.24-.47 2.88-2.4zM108.5 111.76l-.48.48c-.24-.24-.24-.24-.48-.24s-.48 0-.48.24l-.23.24v.72l.23.25s.24 0 .48 0 .24 0 .48-.25c.24 0 .48-.23.72-.23s.24 0 .48 0c.23 0 .23 0 .47 0 .23 0 .23 0 .47.23.24 0 .24.25.24.25 0 .24.25.24.25.48s0 .24 0 .48c0 .25 0 .5-.24.5 0 .23-.23.23-.47.47l-.24.24s-.25 0-.25.25h-.47l.23.24-.46.47-1.68-1.2.48-.48s0 0 .24 0l.24.23h.48s.24 0 .24-.24l.24-.25v-.47s0-.24-.24-.24l-.24-.24s-.24 0-.48 0-.24 0-.48.23c-.24 0-.24.24-.48.24-.47 0-.7.24-.95 0-.23 0-.47-.24-.7-.48 0-.25-.25-.25-.25-.5 0-.23 0-.23 0-.48 0-.24 0-.24.24-.48 0-.24.23-.24.47-.48.24-.24.24-.24.48-.24s.48-.24.7-.24c0 0 0 0 .25 0 0 0 0 0 .24-.24 0 0 0 0 .24-.24l.72.96zM108.98 109.36c.23 0 .23-.24 0 0 .23-.24.23-.24.47-.48 0 0 0 0 .24-.24 0 0 0 0 .23-.24l.24-.24.24-.24.25-.24.24-.24.47.48s0 0-.24.24c0 0 0 0 0 .24l1.9 1.92s0 0 .25-.24l.48.48-.24.24s-.24 0-.24.24l-.24.24-.24.24c-.24.24-.24.24-.48.48l-.24.24-.47-.48s0 0 .24-.24c0 0 0 0 0-.24 0 0 0 0 0-.24l-1.67-1.92s0 0-.24-.24c0 0 0 0-.24 0 0 0 0 0-.25.24l-.47.24zM115.9 104.07l-.47.48c-.24-.24-.48-.24-.72 0-.23 0-.47.24-.7.48-.24.24-.24.24-.24.48 0 .25 0 .5 0 .5 0 .24.23.48.23.48.23.24.23.24.47.48.48.24.72.48 1.2.48s.72-.24.95-.48l.24-.24v-.48s0 0 0-.24l-.47-.25c-.02 0-.02 0-.25 0 0 0 0 0-.24.25l-.23.24-.24-.48c.24-.25.24-.25.48-.5 0-.23.25-.23.48-.47l.24-.25s.24-.24.24-.48v.24s0 0 0 .25c0 0 0 0 .24.24l.24.23.24.24.24.24c0 .25-.24.74-.24.98-.24.24-.24.48-.48.72s-.48.48-.7.72c-.25.24-.5.24-.73.24-.24 0-.48.24-.72.24s-.48 0-.48 0c-.24 0-.47 0-.47-.24-.24 0-.24-.24-.48-.24-.24-.24-.48-.48-.72-.72s-.24-.48-.24-.96c0-.24 0-.48 0-.97 0-.24.24-.48.48-.72l.24-.24.24-.23s.24 0 .24-.24h.23l-.24-.24.47-.73 1.68 1.2zM116.39 100.7c.22-.23.22-.23-.02 0 .24-.23.24-.23.24-.23s0 0 0-.24c0 0 0 0 0-.24l3.83.23-2.15-1.45s0 0-.24 0c0 0 0 0 0 .24v.25l-.48-.25c0-.24.24-.24.24-.48l.24-.24s0 0 0-.24c0 0 0 0 0-.24l.24-.24.48.24v.48s0 0 .23 0c0 0 0 0 .25 0l.24.24c.23 0 .23.24.47.24.24.24.48.24.48.48l1.43.97-.72.96-3.58-.25 2.15 1.44s0 0 .24 0c0 0 0 0 0-.25v-.24l.48.25-.24.24s-.23.23-.23.47c0 0 0 .24-.24.24 0 0 0 .25-.24.25v.24s0 0 0 .23l-.5-.24v-.49s0 0 0-.23c0 0 0 0-.22 0l-1.68-1.2s0 0-.24 0c0 0 0 0 0 .24v.25l-.47-.24v-1.2z"/><path fill="#C4C4C4" fill-rule="evenodd" d="M123.8 92.54c.47.24.7.72.47 1.2-.24.48-.72.72-1.2.48-.47-.24-.7-.72-.47-1.2 0-.72.72-.72 1.2-.48zM18.15 94.22c-.48.24-.95 0-1.2-.48-.23-.48 0-.96.5-1.2.46-.25.94 0 1.18.48.24.24 0 .96-.48 1.2zM27.24 90.37l-.7.24c4.05 8.18 10.5 15.16 18.15 19.96 7.64 4.8 16.72 7.45 25.8 7.45 9.08 0 18.16-2.63 25.8-7.44 7.66-4.8 14.1-11.78 18.17-19.95l-.7-.23c-4.08 7.93-10.3 14.9-17.94 19.47-7.65 4.8-16.5 7.2-25.33 7.2-8.84 0-17.68-2.4-25.33-7.2-7.65-4.57-13.86-11.54-17.93-19.47zm-17.68 8.9c5.73 11.3 14.34 20.9 25.1 27.64 10.75 6.73 23.17 10.34 35.84 10.1 12.43 0 25.1-3.6 35.85-10.1 10.75-6.72 19.36-16.34 25.1-27.63l-.73-.25c-5.5 11.3-14.33 20.67-24.85 27.16-10.52 6.5-22.94 10.1-35.37 10.1-12.43 0-24.85-3.6-35.37-10.1-10.5-6.5-19.36-16.1-24.85-27.16l-.72.25z" clip-rule="evenodd"/><path fill="#fff" d="M12.43 63.45l-.96-.24v-.7c.96 0 1.67 0 2.63 0 0 3.36 0 6.72 0 10.1l.72.47v.48c-.96 0-2.15 0-2.87 0v-.48l.72-.48c-.24-3.14-.24-6.26-.24-9.15zM17.45 67.3v-2.4c0-1.7 1.2-2.65 2.86-2.65 1.7 0 2.88.72 2.88 2.64 0 2.16 0 4.32 0 6.48 0 1.7-1.2 2.4-2.87 2.4-1.66 0-2.85-.47-2.85-2.4v-.48h1.67v.48c0 .97.48 1.45 1.2 1.45.7-.24 1.2-.72 1.2-1.45 0-.96 0-1.44 0-2.4-1.2 1.2-4.07.72-4.07-1.68zm4.06-2.4c0-.97-.47-1.45-1.2-1.45-.94 0-1.18.72-1.18 1.7v2.15c0 1.92 2.63 1.92 2.63 0v-2.4h-.24zM117.82 67.3v-2.4c0-1.7 1.2-2.65 2.87-2.65 1.66 0 2.85.72 2.85 2.64 0 2.16 0 4.32 0 6.48 0 1.7-1.2 2.4-2.86 2.4-1.7 0-2.88-.47-2.88-2.4v-.48h1.67v.48c0 .97.47 1.45 1.2 1.45.7 0 1.18-.72 1.18-1.45 0-.96 0-1.44 0-2.4-.95 1.2-4.06.72-4.06-1.68zm4.06-2.4c0-.97-.48-1.45-1.2-1.45-.95 0-1.2.72-1.2 1.7v2.15c0 1.92 2.64 1.92 2.64 0v-2.4h-.24zM127.14 63.45l-.96-.24v-.7c.96 0 1.68 0 2.63 0 0 3.36 0 6.72 0 10.1l.73.47v.48c-.96 0-2.15 0-2.87 0v-.48l.72-.48c-.24-3.14-.24-6.26-.24-9.15z"/><path fill="#C4C4C4" fill-rule="evenodd" d="M92.25 46.63c-5.5-5.53-13.4-9.13-21.75-9.13-8.6 0-16.25 3.36-21.75 9.13-5.5 5.53-9.08 13.46-9.08 21.87 0 8.65 3.35 16.34 9.08 21.87 5.5 5.53 13.4 9.14 21.75 9.14 8.6 0 16.25-3.36 21.75-9.13 5.5-5.53 9.08-13.46 9.08-21.87 0-8.65-3.35-16.34-9.08-21.87zM73.37 89.17c-2.4 1.68-3.35 1.68-5.5 0-1.2-.96-2.4-2.16-2.87-3.6 1.92-.5 2.63-1.45 3.35-1.93 1.43-1.2 2.87-1.2 4.3 0 .72.72 1.43 1.44 3.35 1.93-.24 1.44-1.44 2.64-2.63 3.6zM86.03 78.1c-.47-2.87-1.67-4.8-3.82-6.23 3.12 4.32 1.92 8.9-1.9 11.05-1.9 1.2-3.6 1.68-5.5.48-1.43-.96-2.63-2.16-1.9-3.12.7-.96 2.86-2.4 4.53-3.85 2.15-1.68 1.9-2.16 1.43-4.56-.47-2.17-.95-4.33-2.15-6.25 2.4-.97 3.6-1.45 4.8-4.33-2.87 0-5.5.7-7.9 1.67 1.44 2.4 2.4 5.3 2.87 8.17.48 1.93 0 3.6-2.15 3.6h-7.88c-2.15 0-2.63-1.43-2.15-3.6.46-2.88 1.42-5.76 2.85-8.17-2.4-1.2-5-1.92-7.88-1.68 1.43 2.87 2.4 3.35 4.78 4.32-1.2 1.68-1.68 4.08-2.15 6.25-.48 2.4-.48 2.88 1.43 4.56 1.67 1.44 3.82 2.9 4.54 3.85.72.96-.48 2.4-1.9 3.12-1.92 1.2-3.6.72-5.5-.48-3.83-2.16-5.03-6.73-1.92-11.05-2.15 1.2-3.58 3.36-3.82 6.24-4.07-4.3-4.3-8.88 1.2-11.76-1.68-3.13-2.64-5.77-.5-9.14 3.12-4.56 12.2-4.08 14.83.72 2.63-4.8 11.7-5.28 14.82-.72 2.4 3.37 1.2 6-.48 9.14 5.74 2.64 5.5 7.45 1.43 11.77z" clip-rule="evenodd"/></g><defs><clipPath id="a"><path fill="#fff" d="M0 0h141v137H0z"/></clipPath></defs></svg>