<svg xmlns="http://www.w3.org/2000/svg" width="288" height="41" fill="none"><g fill="#FEED5A" clip-path="url(#a)"><path d="M12.6 8.97c.2-.05.38-.08.6-.13-.15-.03-.32-.03-.5-.05-.13.04-.23.06-.34.12.07.02.14.05.24.05zM5.3 10.25C4.63 10.12 4.04 10 3.1 10c-.2.1-.34.12-.37.15.34.07.8.18 1.23.28.9.2 1.38.06 1.3-.18zM2.75 10.15c-.3-.08-.52-.14-.52-.14.1.07.24.12.35.17.1 0 .1-.02.1-.02s0 .02.07 0zM174 7.1c12.12.35 24.3.6 36.46.74.4 0 .76-.07.76-.18.03-.08-.3-.18-.7-.18-12.18-.18-24.3-.45-36.42-.8-.4 0-.76.1-.8.17.04.13.32.2.7.24zM264.86 17.4c-.28.07-.28.17.03.25.23.05.7.08 1 0 .23-.08.23-.2-.05-.26-.27-.1-.75-.1-1 0zM272.4 21.86c-8.78-.3-17.6-.55-26.43-.78.62-.08 1.24-.2 1.85-.27.62 0 1.24-.06 1.86-.1 5.7-.02 11.36-.07 17.06-.17 2.13.02 3.88-.42 4.02-.97.04-.55-1.54-1-3.6-1.05.34 0 .65-.07 1-.1.34-.02.58-.12.47-.2-.13-.1-.55-.16-.9-.13-1.2.13-2.36.26-3.56.4-10.85-.22-21.7-.14-32.55-.04 11.67-.65 23.52-1.1 35.43-1.28-.24.08-.27.2.04.26.23.07.74.07.98 0 .28-.06.24-.2-.03-.25 0 0 0 0-.04 0 6.4-.08 12.82-.1 19.28-.02.38 0 .7-.08.7-.2 0-.1-.36-.17-.77-.17-21.3-.26-42.47.47-63.1 1.75-1.14 0-2.27.04-3.4.04-.35-.42-1.1-.8-2.13-1.1 7.3-.18 14.6-.4 21.87-.65 6.08 0 12.16.07 18.27.1.9 0 1.62-.2 1.66-.43.03-.23-.7-.42-1.62-.42-1.47-.02-2.98-.02-4.46-.02 1.24-.3 2.03-.7 2.13-1.18.08-.44-.54-.86-1.57-1.17 6.6-.42 13.12-.9 19.47-1.52.38-.03.58-.13.45-.24-.14-.1-.52-.15-.9-.1-9.27.26-18.4.68-27.57 1-7.25-.56-14.32-1.16-22.15-1.37-11.4-.28-22.08.3-32.8.87-3.84-.16-7.65-.27-11.46-.32.55-.2.86-.47.86-.73 0-.08-.04-.13-.07-.2 3.33.02 6.7.04 10.13.07 31.68.16 61.45-1.73 91.8-3.3 1.93-.05 3.34-.52 3.13-1.02-.24-.5-2.02-.86-3.94-.8-14.57 0-27.97.88-42.66 1.75-10.48.62-19.68 1.07-30.22 1.5-12.33.48-23.8.38-35.85.35-1.2-.08-2.37-.13-3.57-.1-1.2.02-2.44.05-3.64.08-9.45-.08-18.72-.4-27.96-.74 11.03-.3 22.05-.68 32.94-1.36.8-.02 1.3-.2 1.2-.4-.14-.22-.83-.35-1.62-.33-15.14.42-30.32.6-45.5.8-4.15-1.74-12.9-2.76-20.73-2.8-2.9-.04-5.58.15-8.3.43 1.28.08 2.52.13 3.75.2-3.7.06-6.9.54-10.03.98-.27-.03-.54-.05-.82-.05-7.28-.97-15.8-.8-23.66-1.2.17.23.38.44.55.67-1.45-.18-2.3-.57-3.92-.7.44.16.85.3 1.3.5-.03 0-.07 0-.1 0-1.72-.37-3.78-.53-5.9-.55C52.22 4 46.3 3.43 40.1 3.15c-.78-.27-1.98-.46-3.4-.5-.58-.1-1.26-.14-1.7-.27C31.07 1.3 26.4.55 21.2 0c.98.2 2 .42 3.04.63-1.5-.2-2.98-.37-4.63-.37.18.13.42.26.6.4-5.16-.95-12.23-.6-15.8.73C.8 2.7 2.06 4.57 7.2 5.5l.77.15c-2.65.2-4.95.65-6.25 1.4-.7.43-.1.98.07 1.47-.22.7 1.84 1.34 4.62 1.4.76.02 1.48-.04 2.13-.1 3.2.27 6.46.48 9.55.8.62.07 1.37 0 1.68-.16.27-.16 0-.37-.62-.45-2.23-.33-4.4-.67-6.56-1.03-.17.05-.34.08-.55.13.07-.05.18-.1.28-.16-.2-.02-.38-.08-.6-.1.15-.03.32-.08.46-.1.16.02.3.02.47.05.28-.12.6-.2.93-.25 3.88.24 7.7.52 11.3 1 .2.02-.14.33.24.46.2.07.37.12.6.17-.64-.08-1.32-.13-2.05-.18-2.75.46-3.82.64-4.54.75 0 0 0 0-.2.05-.35.05-.62.1-1.07.18 0 0 0 0 0 .03-.08.03-.18.03-.28.06-.38-.05-.8-.08-1.24-.08-.48-.02-.93.03-1.13.13-.17-.07-.35-.14-.55-.22-2.37-.16-2.37-.16-4.8-.3 0 0 0 .1.06.2-.1 0-.9.1-1.86.05-.9.02-.9.02-3.2-.14 0 0 0 0 1.1.3 0 0 0 0-.95-.23 0 0 0 0 .24.37 0 0 0 0-.46-.4 0 0 0 0-.4.3 0 0 0 0-1.9-.87-.14.03-.5.05-1.37.18 0 0-.24.08-.4.2-.05.1-.05.1-.8.46 0 0 0 .14.06.27.25.13.25.13.28.44 0 0 .28.15.66.25.4.08.48.1 1.86.3-.1.07-.24.12-.35.2-.27.62-.27.62 1.45 2.06 0 0 .92.4 2.47.7 1.77.12 1.77.12 3.8.28 0 0 .45.05 1.2.13.58.25.7.3 1.13.5-.37.03-.8.06-1.1.14-.92.2-1.06.55-.27.78-1.03.97-.4 1.83.9 2.64-.38.32-.6.66-.52 1-1.5.8-2.44 1.67-2.85 2.6l-.18.82c.44.68 1.7 1.3 3.57 1.8l.57.2-.55.64c2.4 1.78 7.18 3.2 10.1 4.9l2.2.88c1.6.73 4.15 1.26 7.14 1.5l3.16.25c.65 0 1.34.03 2 .03-3.38.84-5.23 2.04-4.6 3.32 1.05 2.12 8.54 3.6 16.7 3.32 21.82-.08 42.87-.23 65.15-1.1 16.48-.65 31.46-1.5 47.63-1.5 15.45-.93 30.36-2.1 45.46-3.54 12.68-1.18 22.4-3.56 33.6-5.36.3-.06.33-.16.16-.27-.28-.07-.72-.1-1-.02-17.78 1.57-35.7 2.93-54.8 3.27-2.2.02-4.33.05-6.46.02-.24-.02-.48-.05-.8-.05-1.9-.1-3.87-.18-5.8-.3.7 0 1.35 0 2.04 0 1.34 0 2.47-.27 2.57-.64 0-.16-.17-.3-.48-.4 4.94-.36 9.8-.86 14.62-1.38 1.44-.02 2.78-.16 3.9-.36 5.6.25 11.2.43 16.84.7l1.4.1c1.86.07 3.65-.13 4.5-.55.28-.13.45-.26.55-.4 12.82-.73 25.8-1.3 37.9-2.7.6-.07.92-.2.8-.38.25.05.53.05.8 0 1.45-.3 3.06-.45 4.78-.6.38-.05.58-.16.4-.24-.16-.1-.57-.15-.92-.1-1.75.16-3.43.36-5 .63-.18.02-.3.07-.32.13-.34-.12-.9-.17-1.44-.12-12.5.47-24.6 1.52-37.2 1.75 6.2-.62 12.47-1.07 19.14-1.57 8-.57 15.38-1.4 23.45-1.72.4 0 .68-.1.64-.2-.07-.1-.4-.2-.82-.17-16.55.5-31.05 2.9-48.15 2.9-.68 0-1.34 0-2-.02 5.3-.84 10.45-1.7 15.64-2.56 15.73-.38 31.4-.9 46.84-1.7.76 0 1.38-.17 1.34-.35.04-.13-.6-.3-1.37-.3zM9.3 12.96c.2.06.38.1.62.24 0 0 0 0-.6-.23zm38.1-.44c-3.14-.15-6.33-.26-9.6-.3-1.2-.04-2.4.02-3.56.1-1.27-.53-2.65-1.05-4.4-1.47 2.92.32 6.25.45 9.34.66 3.4.24 6.77.48 10.1.66-.38.02-.8.05-1.17.08-.37.05-1.12.02-.7.28zm6.96-5.4c.58.18 1.2.38 1.82.57-.07 0-.17 0-.28 0-.8-.1-1.58-.17-2.4-.25.14.05.3.1.45.16-3.1-.12-6.15-.28-9.2-.44-4.4-.52-9.14-.88-13.95-1.02 1.38-.2 2.72-.47 3.92-.73 6.1.6 11.95 1.35 18.33 1.56.48.05.9.1 1.3.15zm-30.84 9.72c-.03 0-.03 0 0 0-.24-.13-.5-.26-.9-.45 0 0 .4.18.9.44zM13.05 25.6l-.14-.08 1.87-2-1.72 2.08z"/></g><path fill="#222" d="M75.7 10l-6.86 21h-5.22L59 16.78 54.23 31h-5.2l-6.9-21h5.05l4.74 14.76L56.87 10h4.5l4.8 14.88L71.07 10h4.64zm8.87 21.24c-1.7 0-3.23-.35-4.6-1.05-1.33-.73-2.38-1.72-3.14-2.98-.76-1.26-1.14-2.7-1.14-4.3 0-1.6.37-3.02 1.13-4.28.76-1.26 1.8-2.24 3.15-2.94 1.36-.72 2.9-1.08 4.6-1.08 1.7 0 3.2.36 4.55 1.08 1.34.7 2.4 1.68 3.15 2.94.76 1.26 1.14 2.7 1.14 4.3 0 1.6-.38 3.02-1.14 4.28-.76 1.26-1.8 2.25-3.15 2.97-1.34.7-2.86 1.04-4.56 1.04zm0-3.84c1.2 0 2.18-.4 2.94-1.2.8-.82 1.18-1.9 1.18-3.27 0-1.36-.4-2.44-1.17-3.24-.75-.83-1.73-1.24-2.93-1.24-1.2 0-2.2.4-2.97 1.23-.78.8-1.17 1.87-1.17 3.23 0 1.36.4 2.45 1.17 3.27.78.8 1.77 1.2 2.97 1.2zm19.66 3.84c-1.7 0-3.23-.35-4.6-1.05-1.33-.73-2.38-1.72-3.14-2.98-.77-1.26-1.15-2.7-1.15-4.3 0-1.6.38-3.02 1.14-4.28.75-1.26 1.8-2.24 3.14-2.94 1.36-.72 2.9-1.08 4.6-1.08 1.7 0 3.2.36 4.55 1.08 1.33.7 2.38 1.68 3.14 2.94.76 1.26 1.14 2.7 1.14 4.3 0 1.6-.38 3.02-1.14 4.28-.76 1.26-1.8 2.25-3.15 2.97-1.35.7-2.87 1.04-4.57 1.04zm0-3.84c1.2 0 2.18-.4 2.94-1.2.78-.82 1.17-1.9 1.17-3.27 0-1.36-.4-2.44-1.17-3.24-.76-.83-1.74-1.24-2.94-1.24s-2.2.4-2.97 1.23c-.78.8-1.17 1.87-1.17 3.23 0 1.36.38 2.45 1.16 3.27.78.8 1.77 1.2 2.97 1.2zm19.2 3.96c-1.65 0-3.26-.22-4.82-.66-1.53-.46-2.77-1.05-3.7-1.77l1.64-3.66c.9.66 1.97 1.2 3.2 1.6 1.25.4 2.5.6 3.73.6 1.38 0 2.4-.2 3.06-.6.66-.43 1-.98 1-1.66 0-.5-.2-.9-.6-1.22-.4-.34-.9-.6-1.5-.8-.6-.2-1.43-.43-2.47-.67-1.6-.37-2.9-.75-3.93-1.13-1.02-.38-1.9-1-2.64-1.83-.73-.84-1.1-1.96-1.1-3.36 0-1.22.34-2.32 1-3.3.66-1 1.65-1.8 2.97-2.37 1.34-.57 2.97-.86 4.9-.86 1.33 0 2.64.16 3.92.48 1.27.32 2.4.78 3.35 1.38l-1.5 3.7c-1.94-1.1-3.88-1.66-5.82-1.66-1.36 0-2.37.22-3.03.66-.64.44-.96 1.02-.96 1.74s.37 1.26 1.1 1.62c.77.34 1.92.68 3.46 1.02 1.6.38 2.9.76 3.93 1.14 1.02.38 1.9.98 2.6 1.8.75.82 1.12 1.93 1.12 3.33 0 1.2-.34 2.3-1.02 3.3-.66.98-1.66 1.76-3 2.34-1.34.57-2.97.86-4.9.86zm22.32-1.14c-.46.34-1.03.6-1.7.78-.67.16-1.37.24-2.1.24-1.93 0-3.42-.5-4.48-1.47-1.04-.98-1.56-2.42-1.56-4.32v-6.63h-2.48v-3.6h2.5V11.3h4.67v3.92h4v3.6h-4v6.57c0 .67.16 1.2.5 1.58.36.36.86.54 1.5.54.74 0 1.37-.2 1.9-.6l1.25 3.3zm7.1-13.23c.56-.8 1.3-1.38 2.25-1.78.96-.4 2.06-.6 3.3-.6v4.32c-.52-.04-.87-.06-1.05-.06-1.34 0-2.4.38-3.15 1.14-.76.74-1.14 1.86-1.14 3.36V31h-4.68V14.86h4.47V17zm15.86 14.24c-1.7 0-3.22-.35-4.58-1.05-1.34-.73-2.4-1.72-3.15-2.98-.76-1.26-1.14-2.7-1.14-4.3 0-1.6.38-3.02 1.14-4.28.76-1.26 1.8-2.24 3.15-2.94 1.36-.72 2.9-1.08 4.6-1.08 1.7 0 3.2.36 4.55 1.08 1.34.7 2.4 1.68 3.15 2.94.76 1.26 1.14 2.7 1.14 4.3 0 1.6-.38 3.02-1.14 4.28-.76 1.26-1.8 2.25-3.15 2.97-1.34.7-2.86 1.04-4.56 1.04zm0-3.84c1.2 0 2.2-.4 2.95-1.2.78-.82 1.17-1.9 1.17-3.27 0-1.36-.4-2.44-1.17-3.24-.76-.83-1.74-1.24-2.94-1.24s-2.18.4-2.96 1.23c-.78.8-1.17 1.87-1.17 3.23 0 1.36.4 2.45 1.17 3.27.78.8 1.77 1.2 2.97 1.2zm12-12.54h4.67V31h-4.68V14.86zm2.33-2.25c-.86 0-1.56-.24-2.1-.74s-.8-1.12-.8-1.86.26-1.36.8-1.86 1.24-.75 2.1-.75c.86 0 1.56.23 2.1.7.54.5.8 1.1.8 1.8 0 .8-.26 1.44-.8 1.96-.54.5-1.24.75-2.1.75zm23.13-3.86V31h-4.47v-1.86c-1.17 1.4-2.85 2.1-5.05 2.1-1.52 0-2.9-.34-4.14-1.02-1.2-.68-2.17-1.65-2.87-2.9-.7-1.27-1.05-2.73-1.05-4.4 0-1.65.35-3.1 1.05-4.37.7-1.26 1.66-2.23 2.88-2.9 1.25-.7 2.63-1.03 4.15-1.03 2.06 0 3.67.65 4.83 1.95V8.74h4.68zm-8.7 18.66c1.18 0 2.16-.4 2.94-1.2.78-.82 1.17-1.9 1.17-3.27 0-1.36-.4-2.44-1.17-3.24-.78-.83-1.76-1.24-2.94-1.24-1.2 0-2.2.4-2.97 1.23-.8.8-1.18 1.87-1.18 3.23 0 1.36.4 2.45 1.17 3.27.77.8 1.76 1.2 2.96 1.2zm36.22-.36V31H217.8v-3.15l8.1-7.65c.87-.82 1.45-1.52 1.75-2.1.3-.6.45-1.2.45-1.77 0-.84-.3-1.48-.87-1.92-.56-.45-1.4-.68-2.5-.68-.9 0-1.74.18-2.48.54-.74.34-1.36.86-1.86 1.56l-3.55-2.28c.82-1.22 1.95-2.17 3.4-2.85 1.43-.7 3.08-1.06 4.94-1.06 1.55 0 2.9.26 4.07.78 1.18.5 2.1 1.22 2.73 2.16.66.92 1 2 1 3.27 0 1.14-.25 2.2-.73 3.2s-1.4 2.15-2.8 3.43l-4.82 4.56h9.03z"/><defs><clipPath id="a"><path fill="#fff" d="M0 0h288v41H0z"/></clipPath></defs></svg>